<?xml version="1.0" encoding="utf-8"?>
<!-- Generator: Adobe Illustrator 19.0.0, SVG Export Plug-In . SVG Version: 6.00 Build 0)  -->
<svg version="1.1" id="Layer_1" xmlns="http://www.w3.org/2000/svg" xmlns:xlink="http://www.w3.org/1999/xlink" x="0px" y="0px"
	 viewBox="0 0 500 500" style="enable-background:new 0 0 500 500;" xml:space="preserve">
<style type="text/css">
	.st0{fill:#28166F;}
	.st1{fill:#FF6600;}
</style>
<g id="XMLID_1_">
	<path id="XMLID_3_" class="st0" d="M307.3,344.3l-1.1-0.9l0.3-0.3l0.3-0.5l0.1-0.2c0-0.1,0.1-0.2,0.1-0.4c0-0.2,0-0.4-0.1-0.7
		c-0.1-0.3-0.3-0.5-0.6-0.8l-0.3-0.3l-0.3-0.2l-0.6-0.5c-0.2-0.1-0.3-0.3-0.5-0.4c-0.2-0.1-0.3-0.2-0.4-0.3l-0.5-0.3
		c-0.2,0-0.3,0-0.4,0l-0.5,0.1l-0.4,0.3c-0.1,0.2-0.3,0.3-0.4,0.4l-0.2,0.2l-1.1-0.9c0.5-0.6,1-1,1.4-1.2c0.5-0.2,0.9-0.3,1.4-0.2
		c0.5,0.1,0.9,0.3,1.4,0.6c0.3,0.2,0.6,0.4,0.7,0.5c0.1,0.1,0.4,0.3,0.7,0.6c0.8,0.7,1.4,1.3,1.7,1.8c0.2,0.3,0.3,0.6,0.4,0.8
		c0.1,0.3,0.1,0.5,0.1,0.8l-0.2,0.6l-0.2,0.5L307.3,344.3L307.3,344.3z"/>
	<path id="XMLID_28_" class="st0" d="M271.8,430.4h-52.1v-2.1h52.1c2,0,1.3,0.3,2.1,1.4C273.1,430.1,273.2,430.4,271.8,430.4
		L271.8,430.4z M268.9,426.1h-45.7v-2.9h47.9C270.9,425.2,271.1,426.1,268.9,426.1L268.9,426.1z M208.2,420.4v-1.4h77.1v1.4H208.2z
		 M279.6,413.2c2.2,0,2,0.8,2.1,2.9h-68.6v-2.9H279.6L279.6,413.2z M193.2,411.1c-2,0-1.3-0.2-2.1-1.4h111.4
		c-0.8,1.1-0.1,1.4-2.1,1.4H193.2L193.2,411.1z M298.9,403.9v2.9H194.6v-2.9H298.9z M174.6,401.8v-1.4h144.3v1.4H174.6L174.6,401.8z
		 M317.5,397.5H176.8v-2.1h140.7V397.5z M154.6,392.5v-1.4h185v1.4H154.6L154.6,392.5z M156.8,388.2c-2.3,0-2.4-1.8-2.9-3.6h187.9
		c-0.5,1.4-1.8,3.6-3.6,3.6H156.8L156.8,388.2z M351.1,388.9c0,2.2-0.8,2-2.9,2.1c0.4,1.6,0.2,2.1,2.1,2.1h0.7c3.3,0,5.7-5,5.7-8.6
		c0-5.8-3.6-11.2-3.6-18.6v-1.4c0-1.9,0.3-2,0.7-3.6l9.7,5.5c0.3,12.9,0.7,32.4-11.9,32.4h-2.9c-3.5,0-6.4-2.9-6.4-6.4v-2.9
		c0-2,2.5-3.6,4.3-3.6C348.5,386.1,351.1,386.8,351.1,388.9L351.1,388.9z M140.4,361.1c0.3,1.5,0.7,1.6,0.7,3.5v0.7
		c0,7.6-3.6,13.3-3.6,19.3c0,4.9,3.3,6.3,6.4,7.9l3.1-1.9c-2.3-0.5-3.8-0.8-3.8-3.1c0-1.3,2.6-2.1,4.3-2.1c3.9,0,3.7,1.8,5,4.3
		c-0.8,3.3-1.7,7.9-5.7,7.9h-4.3c-7.3,0-12.1-10.1-12.1-17.9l0.3-13.7L140.4,361.1L140.4,361.1z M161.8,351.8
		c5.5-3.6,10.5-8.1,13-14.9c1.9-5.2,0.5-20.8,6.3-20.8h132.9c5.2,0,3.8,15.6,6,21.2c2.5,6.3,7.5,11.2,12.6,14.6
		c1.2-0.8,1.3-1.5,2.9-1.4l5,0.3c1.5,2.5,6.4,6.9,6.4,9c0,2.2-1.9,4.3,1.4,4.3h2.1v4.3c0,6.6,2.9,8.8,2.9,17.1
		c-3.5-2.4-6.3-2.9-12.1-2.9H144.6c-1.7,0-2.1,1.2-3.6,2.1c0-8,2.9-10.4,2.9-17.1v-4.3h4.3c-0.2-2.9-0.7-1.6-0.7-4.3
		c0-1.7,5.7-5.8,6.4-8.6l5,0.1C160.5,350.3,160.5,351,161.8,351.8L161.8,351.8z M363.2,363.2c-5.9-0.5-8.1-4.7-9.3-10
		C356.6,353.9,361.7,360.9,363.2,363.2z M139.8,352.7l0.6,0.5c-1.3,5.6-3.7,9.5-10,10L139.8,352.7L139.8,352.7z M126.1,347.5
		c0-3.8,1.8-6.6,2.8-9.4c1.5-4.1,0.2-6.9,1-11.1c1.3-6.2,6.1-11,13.3-11c4.1,0,6,2.1,7.9,4.3L149,328l0.8,0.5l12.9-5.7l0.7,0.8l-3-2
		l-7.9,3.1c0.8-1.4,1.4-1.4,1.4-3v-2.1c0-2.3-0.6-0.5-1.4-3.6h3.6l-0.9,3.5c3.3-0.7,5-2.8,8-2.8h4.3l7.8,0.4
		c-0.7,2.7-2.5,16.9-3.2,18.5c-2.9,6.7-6.5,7.8-9.6,12.5l-12.3-2.8l0.2-0.8c0.4,1.6,0.7,1.6,0.7,3.6c0,6.1-6.3,4.8-6.4,12.1h-2.1
		c-0.5-2-0.7-1.2-0.7-2.9c0-0.5,3.1-7.6,3.6-8.6c-9.4,0.2-10.6,8.2-16.4,12.1c-0.8-3.4-2.9-6.6-2.9-10.7L126.1,347.5L126.1,347.5z
		 M338.9,315.4h2.9c-0.6,2.5-1.4,2.4-1.4,5c0,1.2,1,2.7,1.4,3.6c-2.9-0.7-3.6-2.1-6.4-2.1h-2.1c-2,0-1.3,0.2-2.1,1.4l0.6-1.2
		l12.3,6.1c0.8-1.1,1.4-1.1,1.4-2.7c0-2.1-1.4-1.9-1.4-5c0-3.3,4.6-5,7.9-5c7.2,0,11.8,5.7,12.7,11.6c0.8,4.7-0.5,6.4,1.1,11
		c1.1,3.1,2.6,5.2,2.6,8.8v4.3c0,2.7-2,8.1-2.9,10c-5.6-3.7-7.1-11.4-15.7-12.1c0.4,4.4,2.9,6,2.9,9.3c0,1.9-1,2.1-2.1,2.9
		c-0.6-7.1-7.1-7.2-7.1-12.9c0-1.9,0.3-2,0.7-3.6l0.2,0.9l-12.3,2.9c-3.3-5-7.1-6.4-9.7-13.5c-1.5-4.3-1-5.2-1.1-10.3
		c-0.1-4.9-1.3-5-2.2-8.5l0.1-0.7l19.9,3.6L338.9,315.4L338.9,315.4z M364.6,313.2h-230v-2.1h230V313.2z M140.4,308.9
		c3-4.5,6.3-10.7,13.6-10.7h192.9c6.1,0,10.9,6,12.1,10.7H140.4z M346.8,296.1H154.6c-2.2,0-2-0.8-2.1-2.9h196.4
		C348.8,295.2,349,296.1,346.8,296.1L346.8,296.1z M251.1,168.9c9.5,0,16.5-2.9,23.1-6.2c8.6-4.3,10.5-9.3,16.2-13.1
		c0,29.3,52.1,38,52.1,82.9v2.1c0,10.1-6.3,25.4-10.6,31.5c-3.4,4.9-16.2,18.5-23,18.5H191.1c-7.1,0-19.7-14.4-23.4-19.5
		c-4.9-6.8-10.2-21.1-10.2-32.7c0-44.8,52.1-53.7,52.1-82.1c7.6,2,13.6,18.6,40.7,18.6L251.1,168.9L251.1,168.9z M308.9,131.1
		c5.9,0,11.4,6.2,11.4,12.1v1.4c0,7.2-4.5,10.3-9.3,12.9c12.2,23.1,65.7,34.9,65.7,80.7v0.7c0,33.3-31,45-32.1,49.3l5.8,0.7
		l-0.1,0.8c-1.9,0.9,0.6,0.7-2.1,0.7H151.8c-1.4,0-1.3-0.2-2.1-0.7l-0.1-0.8l6.5-0.9c-1.6-4.3-32.8-15.1-32.8-49
		c0-47.2,53.3-58,65.7-81.4c-4.8-2.5-9.3-5.7-9.3-12.9v-1.4c0-6.3,5.6-12.1,12.1-12.1c7.1,0,14.3,8.5,14.3,15.7v0.7
		c0,28-52.1,40.7-52.1,83.6v2.9c0,11.4,5.9,26.8,10.6,33.7c3,4.3,18.8,20.6,23.7,20.6h123.6c5.3,0,20.8-17,24-21.7
		c5.1-7.6,10.3-22.3,10.3-34.7v-2.9c0-39.3-52.1-54.6-52.1-80v-2.1C293.9,139.2,301.1,131.1,308.9,131.1L308.9,131.1z M201.8,118.9
		c0-25.6,20.7-48.6,45.7-48.6h7.9c22.8,0,42.9,24.2,42.9,49.3c0,23.8-22,46.4-45.7,46.4h-5C223.7,166.1,201.8,143,201.8,118.9
		L201.8,118.9z M126.5,329.3c-0.7,4.3-3.2,15.8-3.2,16.8v3.6c0,6.2,2.5,8.2,3.6,12.9l-3.7,2.6c2.1,1.2-0.4,1,2.3,1h2.1v8.6
		c0,12.6,4.4,25.7,16.4,25.7h2.1c5.2,0,6.6-5,9.3-5h18.6l-1.8,7.8l20.4,1.1l0.6,1.2l-3.9,3.2l-0.3,4c1.6,0.4,1.6,0.7,3.6,0.7h18.6
		c-0.2,7.5-5,0.4-5,5.7v1.4c0,1.6,0.5,2.1,2.1,2.1h12.9v3.6c-2.1,0.2-3.6,0.5-3.6,2.9v0.7c0,1.7,1.2,2.9,2.9,2.9h52.9
		c1.7,0,2.9-1.2,2.9-2.9v-0.7c0-4.1-2.9,0.1-2.9-6.4h12.1c1.6,0,2.1-0.5,2.1-2.1v-1.4c0-4.5-3.4,1-3.6-5.7h17.9
		c1.7,0,2.9-1.2,2.9-2.9v-0.7c0-4.3-3.1,0.6-3.6-5l20-1l-1.6-8.2l19.4,0c2.1,0,8.1,12.6,20.1,3c5.4-4.3,7.7-12.2,7.7-21.6v-10.7
		l2.9-0.6l-1.2-1.8c-0.3-6,3.3-9.2,3.3-14.7v-0.7c0-5.4-3.2-8.5-3.6-17.1c-0.3-7.2-2.7-10.6-5.7-15c3.4,0,7.1-0.3,7.1-3.6
		c0-3.5-3.1-2-5.8-4.2c-1.6-1.4-2.8-3.4-4.1-5.2c-2.1-2.9-7.9-6.8-8-10.6c1.6-0.4,2.9-0.7,2.9-2.9c0-3.6-1.2-2.5-2.1-5
		c12.9-6.8,27.1-23.9,27.1-43.6v-9.3c0-18.1-15.7-34-25.6-43c-6.9-6.3-35.2-25.8-38-29.9c2.9-4,8.6-5.8,8.6-14.3v-2.9
		c0-6.9-7.5-15-14.3-15h-3.6c-3.6,0-3.8,1.2-7.1,1.4c0.4-1.6,0.7-1.6,0.7-3.6v-12.1c0-21.2-25.1-45-46.4-45h-6.4
		c-23.7,0-47.9,23.5-47.9,47.1v8.6c0,2.5,0.5,2.8,0.7,5c-3.5-0.3-2.6-1.4-5.7-1.4h-5.7c-5.5,0-13.6,9.1-13.6,15.7v3.6
		c0,5.9,6.5,9.3,8.6,12.1c-3.1,4.7-31.3,25.2-38.2,30.4c-9.1,6.9-25.4,28-25.4,43.2v8.6c0,9.7,4.7,21.8,8.9,27.6
		c5.2,7.1,15.9,13.9,18.3,17.4c-1,1.5-2.1,1.9-2.1,3.6v0.7c0,2.2,1.2,2.4,2.9,2.9v3.6c-4.6,0.4-6.5,5.3-8.8,8.4
		c-3.1,4.2-9.1,5.3-9.1,8c0,2.3,0.9,2.4,2.1,2.9C131.3,320.4,128,319.5,126.5,329.3L126.5,329.3z"/>
	<path id="XMLID_55_" class="st0" d="M198.2,240.7c0.4-1.6,0.2-2.1,2.1-2.1h1.4c1.9,0,2,0.3,3.6,0.7v1.4h-2.9v2.9
		c0,2.6-1.1,1.8-2.9,1.4c0.5-0.9,1.4-2.4,1.4-3.6C201.1,239.9,199.5,240.3,198.2,240.7L198.2,240.7z M207.5,235v-7.9
		c4.6,1.2,2.9,9.8,12.9,10v4.3c0,4.9,2,5.4,2.8,8.5l-5,1.5C218.2,244.3,207.5,237.5,207.5,235L207.5,235z M288.2,245v1.4
		c0,4.4,2,6.4,3.6,9.3c-0.7,1.1-3.6,3.9-3.6,5c0,2.1,1.9,3.6,2.4,4.6l-3.2,3.5l-5,0.3l-0.1-0.8l-5.6,0.9c2.5-3.7,7.9-3.2,7.9-10
		c0-6.3-5-11-5-15v-5c0-2.3,6.5-9.3,9.3-9.3c3.2,0,4.7,1.2,5,4.3C290.5,235.2,288.2,240.7,288.2,245L288.2,245z M201.1,230.7h4.3
		l-0.1,1.1l-3.5,1.6l2.8,0.8v1.4c-3.3,0.1-7,2.1-4.6-3.4l-1.2-3.2l5.1-1.2v1.4h-2.9L201.1,230.7L201.1,230.7z M224.6,227.2
		c0-2.5,2.5-3.4,5-3.6v3.6c0,2.3-2.4,3.8-4.3,4.3c-0.4-1.6-0.7-1.6-0.7-3.6L224.6,227.2L224.6,227.2z M232.5,225.7
		c0-2.4,1.3-2.1,3.6-2.1c-0.7,2.9-1.9,3.8-3.6,5.7V225.7L232.5,225.7z M208.2,223.5l0,1.5l-12.1,1.6l-3.5,2.1l-0.1,4.2
		c-1.1-1.2-1.4-1.2-1.4-3.6v-1.4c0-2.1,3-4.2,5-3.9L208.2,223.5L208.2,223.5z M240.4,221.5c1,1.7,0.7-0.2,0.7,1.4
		c0,1.4-1,2.3-1.4,4.3c-1.1-0.8-1.4-0.1-1.4-2.1l0.1-2.7L240.4,221.5L240.4,221.5z M243.2,222.2c0-1.5,0.3-0.9,0.7-2.9
		c1.1,0.3,2.1,0.1,2.1,1.4c0,1.8-1.3,3.3-2.1,4.3C243.5,223,243.2,223.8,243.2,222.2L243.2,222.2z M248.2,217.9
		c1.5-2-0.5-1.8,2.9-2.1l-0.6,5L248.2,217.9L248.2,217.9z M232.5,217.9c0-2.2,1.2-2.4,2.9-2.9v2.1c0,2-1.6,2.8-2.9,3.6V217.9
		L232.5,217.9z M230.2,215.5c0.1,3.6-0.6,4.5-3.4,5.2l0.7-3.6L230.2,215.5L230.2,215.5z M237.5,216.4c0-1.9,1-2.7,2.1-3.6
		c0.9,1.9,0.7-0.6,0.7,2.1c0,1.9-1,2.7-2.1,3.6C237.3,216.7,237.5,219.2,237.5,216.4z M244.6,216.4c-1.6-0.4-2.1-0.2-2.1-2.1v-2.1
		c1.6,0.4,2.1,0.2,2.1,2.1V216.4z M254.6,214.3v2.9c-1.2-0.8-2.9-1.6-2.9-3.6c0-1.4,0.2-1.3,0.7-2.1
		C253.6,212.2,254.6,212.4,254.6,214.3L254.6,214.3z M246.8,210.7c2.1,1.5,1.3-0.1,1.4,3.6C246.1,212.8,246.9,214.4,246.8,210.7z
		 M250.4,210.7l-1.5,0v-2.1L250.4,210.7L250.4,210.7z M257.5,210v2.1c-2.2-0.6-2.9-1.4-2.9-4.3c0-1.3,1.1-1.2,2.1-1.4
		C257.2,208,257.5,208.1,257.5,210L257.5,210z M212.5,207.9v-1.4l10,0.9c-0.7,0.8-0.2,1.5-2.1,1.2L212.5,207.9L212.5,207.9z
		 M227.5,205.7l3.5,0c2,0,1.7,0.6,2.1,2.1l-3.6-0.5l-1.3,0.5L227.5,205.7L227.5,205.7z M231.8,203.6c-6.1-0.1-8.7-2.5-13-3.6
		l0.8-2.1c4.5,2.4,6.6,3,12.2,4.3L231.8,203.6L231.8,203.6z M269.6,195.7c1.3,2.4,4.1,4,7.9,3.8l15.7-1.7
		c9.6-1.1,12.9,5.1,12.9,14.3c2.7,4.1,6.4,7.8,6.4,15c0,9.3-5.7,17.1-5.7,21.4v3.6c0,1.6,0.6,1.6,1.4,2.9c-1.7,2.6-4.3,3.4-4.3,7.9
		c0,3.2,2.9,2.5,5,3.6l-3.4,3.8l0.4,0.7l-2.4-1.3l-3,2.6l-0.3-1.5l-5.5,0.6c0.9-3.3,5.7-6.1,5.7-10.7c0-6-3.2-12.9-4-18.9
		c-0.5-3.4,3-14.7-6-14.7c-8.4,0-13.2,10.6-17.3,15.6c-6.3,7.6-10.3,9.8-19.1,14.4c-1.9-1.3-3.6-2.5-3.6-5.7v-0.7
		c0-2.9,2.5-6,2.9-10h-1.4c-0.4,4.5-4.3,6.2-4.3,11.4c0,1.4,1,2.3,1.4,4.3c-1.7,2.5-5,4.4-5,8.6l0.1,1.9l2.9,1.3l-0.9-0.1l-3.7,4.9
		l0.8,0.1l-5.7,0.6l-0.1-1.7l-5.6,1.7c1-4.3,10.7-6.8,10.7-15c0-2.6-4.3-5.9-4.3-10v-5c0-2.2,0.7-2.9,1.4-4.3c-3,0.8-5,3.4-5,7.1
		c0,6.1,3.6,8.2,5.7,12.1c-6.3-0.1-17.1-10.3-17.1-16.4v-2.9c0-4.1,3.2-5.5,5.6-7l6.5,2l0.1-5.2l5.6,3.1c0.5-0.9,0.7-0.8,0.7-2.1
		v-2.1h5.7l0-4.4l5.7,0.8V220h2.1c2,0,1.7-0.6,2.1-2.1l1,0.2l2.6,4.8c9-2.4,18.3-15.7,31.4-15.7h0.7c5.9,0,6.7,1.9,10.7,2.9
		c0-5.5-2.7-9.3-7.9-9.3h-6.4c-6.1,0-22.1,2.7-22.1-3.6v-1.4c0-6.6,21.7-3.6,29.3-3.6l0,1.2l-5.8,0.7l0,1.1l-3.4-1.8l-0.3,1.2
		l-3.4-0.8l-0.5,1l-3-1.3v1.4c-3.5-0.3-2.6-1.4-5.7-1.4h-0.7C271.4,193.6,270.8,194.5,269.6,195.7L269.6,195.7z M249.6,190.8
		c4.2-0.1,7.7,0.9,9.4,3.5c-3.7,0.9-4.8,3.6-8.6,3.6h-2.1c0.4-3.4,2.3-2.8,6-3.9L249.6,190.8L249.6,190.8z M228.9,190
		c1.6-0.8,4.5-1.5,7.1-1.4l7.1,0.4l0,1h-2.9v2.1l5,2.1l0,3.6l10.6,4l0.1,1h-3.6l1.7,1.9l-5.2-1.4l-0.1,1.7l4,3.1l-0.5,0.6l-4.9-2.3
		l-5.3,4.1l-0.4-4.1c0-3.9-2.7-5.6-5-7.1c0.3,3.8,2.9,4.1,2.9,6.4v1.4c0,3.2-5.7,5.7-9.3,5.7c-2.2,0-7.8-1.8-9.3-2.9l7.1-0.1
		c9.8,0.5,6.5-6.1,3.6-10.6c5.3-0.4,1.1-2.9,5-2.9h0.7c2.8,0,1.4,2.7,7.1,2.9c-0.5-5.5-5.6-5.7-9.3-5.7c-1,0-0.4-0.8-2.9-1.4
		c0,6.7-0.2,4.7-5,4.3l1.4,2.9c-3.2-0.1-10-2.9-10-5.7c0-1.6,0.5-2.1,2.1-2.1c5.8,0,2.9,4.3,10.7,4.3L228.9,190L228.9,190z
		 M200.4,207.9c0-8.8,1.7-22.3,6.4-25.7l-4.2,27.8l0.7,1.5c0,6.3,3.3,11.3-2.9,11.4L200.4,207.9L200.4,207.9z M197.5,220.7
		c-3.8,1.8-9.3,1.9-9.3,7.9v0.7c0,3.1,0.8,3.9,1.4,6.4c-1.6,0.4-2.9,0.7-2.9,2.9v0.7c0,1.7,1.2,2.9,2.9,2.9h1.4
		c2.6,0,4.4-3.7,4.1-6.4l0.1-7.1l1,0.1l1.9,8.5l-2.4,3.8l2.5,1.2l-1.3,3.2l4,4.5l4.6-4l0.6,0.4l-1.6-3.5l0.5,0.6l2.9-2.9l-0.6-0.6
		c3.7,1,8.6,9.9,8.8,16l8.4-4.6l-0.5,0.6l13.6,10l0.5-0.6c-0.7,7.9-7.9,5.7-7.9,11.4c0,2.6,0.7,3.2,2.1,4.3l-0.5-0.6l3.6-2.8l0,1.1
		l3.3,1.6l0-2.1l6.4,0.7l-0.5-3.9l4.1-2.5c-1.1-4.1-2.9-0.8-2.9-4.3c0-2.3,3.5-4.7,5-5.8l2.8,1.5l0.7,0.8l22.7-16.7l-0.4-0.6
		c1.2,5.3,5.7,12.2,5.7,15.7c0,4.3-5.5,4.9-7.9,9.3l0.7,3.6c3.3-0.9,1.8-2.1,4.3-2.1c2,0,1.7,0.6,2.1,2.1c2.5-0.7,1.9-1.4,2.9-1.4
		c2.2,0,2.9,0.7,4.3,1.4l-0.8-0.7l5-5.7l1,0.4l-4.1-5.7l4.5-4.8c-1.7-2.6-3.6-5-3.6-9.3v-2.9c0-2.7,1.3-4.6,2.9-5.7
		c0,9.9,3.6,14.8,3.6,21.4c0,7.8-5,7-5,12.1c0,1.6,0.5,2.1,2.1,2.1l1.5-0.4l5.4,0.9l1.7-2l3.8,0.4l5.1-5.9l-6.5-4.1l5.4-7.5
		c-0.8-3-1.4-1.2-1.4-3.6v-2.1c0-3.9,5.7-12.4,5.7-22.9c0-11-5.8-12.2-6.4-17.9c-0.9-8-4.2-12.2-11.9-12.5l7.6-5.8l-0.8-1
		c-0.8-1.6-0.6-2.9-2.9-2.9c-2.3,0-2.7,1.4-2.9,3.6h-2.1c-9.7,0-31.4-3.8-31.4,5.7c0,5.5,5.4,7.9,10.7,7.9c9.1,0,21.8-4.5,25.7,2.9
		c-2.6-0.6-3.4-1.4-6.4-1.4h-4.3c-7,0-21.9,11.1-27.9,14.3c-1.3-5.6-2.4-0.8-1.6-8c0.4-3.7-1.2-5.5-3.3-6.9l1.8-3.9l-2.3-2.2
		l6.6-4.7l-0.3-1.3l-17.7-5.5l-0.1,1l-1.4-2.2l-0.3,1l-8.6-0.1h-0.7c-5.7,0-7.5,3.4-8.7,3l-9.3,1.2l0.5,0.8l-0.5,10l-0.1-0.7
		l6.3,4.5l-0.4,0.6l-9.3-0.8c-2.7-0.3-3.5,3.1-3.6,5.7l0.2-0.9l16.9,3.8c-0.5,2-5,13-5,14.3c0,2.6,0.8,2.5,1.4,5
		c-0.7,0.8-1.2,2.1-2.1,2.1c-9.9,0-6.7-11.4-14.1-15l-0.9-10c-1.4-13.5,4.2-25.6,5-35C197.3,182.3,197.5,199.9,197.5,220.7
		L197.5,220.7z"/>
	<path id="XMLID_56_" class="st0" d="M296.1,146.1v4.3c0,22,52.9,39.3,52.9,80c0,12.7-4.9,26.5-9.3,35c-4.1,8-21.4,22.7-21.4,22.8
		c25.1,0,23.1-0.8,38-12.7c8.2-6.7,17-19.1,17-33.7v-6.4c0-40.1-60-60.1-64.3-78.6c4.9-2.6,10-5.5,10-12.9c0-4.7-4.7-10.7-9.3-10.7
		h-0.7C302.4,133.2,296.1,140.3,296.1,146.1L296.1,146.1z"/>
	<path id="XMLID_57_" class="st0" d="M191.1,156.8c-3.5,15-48.7,33.3-61.2,64.5c-7,17.3-2.5,36.6,7.5,47.8
		c5.9,6.6,10.3,9.1,17.3,14.1c10.3,7.3,10.5,5,27.1,5c-0.9-2.3-9.3-7.3-11.6-9.8c-3.5-3.8-6.6-8.1-9.4-12.7
		c-4.3-7.2-9.7-22.9-9.7-33.9c0-42.5,52.9-59.6,52.9-81.4v-4.3c0-5.5-6.5-12.9-12.1-12.9h-1.4C181,133.2,175.6,148.6,191.1,156.8
		L191.1,156.8z"/>
	<path id="XMLID_100_" class="st0" d="M244.6,144.6c1.3,0,1.1,1.1,1.4,2.1h-2.9C243.5,145.7,243.4,144.6,244.6,144.6L244.6,144.6z
		 M254,146.9c0.4-0.8,1.1-2.3,2.1-2.3c1,0,1,0.9,1.5,1.6L254,146.9L254,146.9z M264.6,141.1h2.1v1.4h-2.1V141.1z M257.5,141.8
		c0-2.7,0.5-1.4,0.7-4.2l4.6,2.2l-1.7,4.9C260.1,144.1,257.5,143.1,257.5,141.8L257.5,141.8z M233.2,141.1h2.1l0,2.1l-2.2-0.7
		L233.2,141.1L233.2,141.1z M238.9,144.6l-0.7-5l4.1-0.6l0.9,2.8C241.4,143.8,242.3,144.4,238.9,144.6L238.9,144.6z M250.4,146.1
		c-2.4,0-5.7-6.4-5.7-7.9v-0.7c0-2.2,4-3.9,5.4-8.2l6,6.8C255.4,139,253.1,146.1,250.4,146.1L250.4,146.1z M271.8,136.1v-2.9h2.9
		C274,135.8,274.3,135.3,271.8,136.1z M225.2,133.4l3.8-0.1l-1,3.8L225.2,133.4L225.2,133.4z M258.1,126.1l8,0.7
		c1.6,2.4,3.6,6,3.6,10v2.1l-0.3,0.7l-10.3-4.3L258.1,126.1L258.1,126.1z M244.3,133.5l0.4-6.8l3.9,1.2L244.3,133.5L244.3,133.5z
		 M252.4,127.6l3-1.5l0.4,5.9L252.4,127.6L252.4,127.6z M228.2,131.1c-1.9,0-2-0.3-4-0.9l2.5-4.7l4.3,1.3
		C230.7,128.2,229.7,131.1,228.2,131.1L228.2,131.1z M241.6,135.4l-11,4.3l-0.7-0.9l4.8-11.8l7.5-0.9L241.6,135.4L241.6,135.4z
		 M268.9,126.1l4.3-0.7c2.2,1.5,2.8,1.4,2.9,5h-3.6l-1.4,0L268.9,126.1L268.9,126.1z M275.8,123.5l3.3-1.6l-1.2,4.5L275.8,123.5
		L275.8,123.5z M221.1,122.5l2.8,2.1l-0.7,2.2l-1.3,0L221.1,122.5L221.1,122.5z M259.1,120.4l4.1,3.7l-4.8-0.8L259.1,120.4
		L259.1,120.4z M239.6,123.9l-2.3-0.2l3.6-3.4l0.8,2.8C240.9,123.7,241,123.9,239.6,123.9L239.6,123.9z M243.2,116.8
		c0-2.5,3.9-5.7,6.4-5.7c3.9,0,7.1,2.5,7.1,6.4v1.4c0,8.4-13.6,8.2-13.6-0.7V116.8L243.2,116.8z M261.8,118.2c0.5-0.6,5.2-5,5.7-5
		c4.4,0,7.5,3.4,10.7,4.3c-1.1,4.3-6.3,5.4-10.7,6.4L261.8,118.2L261.8,118.2z M231.7,113l6.2,5.6l0.4,1c-3.5,0.9-2.4,4.3-5.7,4.3
		h-1.4c-3.7,0-7.7-3.4-9.3-5.8L231.7,113L231.7,113z M278.7,111.5l0.2,3.9l-3.1-1.7L278.7,111.5L278.7,111.5z M263.2,112.4
		c-0.7,2.8-1.5,3.1-4.3,3.7l-0.7-2.8L263.2,112.4L263.2,112.4z M241.1,116.8c-2.8-0.7-4.3-1.5-5-4.3l5.7,0.7L241.1,116.8
		L241.1,116.8z M221.6,111.8l2.5,2l-3.2,1.6L221.6,111.8L221.6,111.8z M227.5,106.8c0.6,0,4.9,5,0.7,5h-1.4c-1.5,0-3.6-2.1-3.6-2.9
		C223.2,107.6,225.9,106.8,227.5,106.8L227.5,106.8z M271.8,106.8l1.4,0c1.9,0,2,0.3,3.6,0.7c-0.5,2-1.1,4.3-3.6,4.3
		c-1.9,0-2-0.3-3.8-0.8L271.8,106.8L271.8,106.8z M252.5,108.9c1.2-1.8,1.1-2.9,3.6-3.6v4.3L252.5,108.9L252.5,108.9z M247.5,108.2
		c0,1.2-2,1.7-2.9,2.1l-0.7-2.2l0-1.4v-2.1C244.7,105.2,247.5,107.2,247.5,108.2L247.5,108.2z M274.6,101.8l0.7,2.9
		c-3.1-1.7-1.8,0.6-2.1-2.9H274.6L274.6,101.8z M241.2,102.1l0.6,8.3l-9.3,0c-0.8-3.6-2.9-4.7-2.9-9.3v-2.1l0.2-0.7L241.2,102.1
		L241.2,102.1z M226.4,100.9l1,3.1l-3,0.5L226.4,100.9L226.4,100.9z M258.2,104.6c0-4,8.2-5.7,12.9-5.7c0,3.9-2.8,11.4-5.7,11.4
		h-7.1V104.6L258.2,104.6z M243.9,101.8c1.2-5.3,2.6-9.5,6.4-12.1c1.5,2.2,5,7.2,5,10.7v2.1l-4.9,4.3L243.9,101.8L243.9,101.8z
		 M242.5,96.1c0,1.9-0.3,2-0.7,3.6c-1.9-0.9-4.3-0.8-4.3-3.6c0-1.9,0.3-2,0.7-3.6C240.3,93,242.5,93.6,242.5,96.1z M264.6,93.2
		c2.1,0.6,3.6,1.6,4.3,3.6h-4.3V93.2z M256.8,96.1c1.3-2,2-3.3,5-3.6c0.4,1.6,0.7,1.6,0.7,3.6c0,2.5-2.5,3.4-5,3.6L256.8,96.1z
		 M235.3,93.2l-0.8,3.6c-3.5,0-1.9,0.7-3.3-1.2L235.3,93.2L235.3,93.2z M255.4,92.5l-1.7-2.7l4.5-0.2
		C257.4,92.6,257.9,91.2,255.4,92.5L255.4,92.5z M243.9,89.6c1.4,0,1.3-0.2,2.1-0.7c-0.3,1.3-0.8,3.6-2.1,3.6c-1,0-0.4-0.8-2.9-1.4
		c0.8-1.1,0.1-1.4,2.1-1.4L243.9,89.6L243.9,89.6z M218.2,117.5c0,16.2,13.7,32.1,29.3,32.1h3.6c16.3,0,30.7-14.6,30.7-30.7
		c0-18.2-14.4-32.9-32.1-32.9C233.3,86.1,218.2,101.1,218.2,117.5L218.2,117.5z"/>
	<path id="XMLID_103_" class="st0" d="M208.9,117.5c0-21.8,19.5-40.7,41.4-40.7c21.9,0,40.7,18.9,40.7,41.4v0.7
		c0,19.5-18.2,40-36.4,40h-7.1C226.6,158.9,208.9,139.2,208.9,117.5L208.9,117.5z M250.4,161.8c24.1,0,43.6-20.2,43.6-44.3
		c0-22.6-19.8-42.9-42.9-42.9h-2.1c-21.1,0-42.1,19.2-42.1,39.3v8.6c0,20.3,21.5,39.3,42.9,39.3H250.4L250.4,161.8z"/>
	<polygon id="XMLID_104_" class="st0" points="361.1,342.5 357.5,341.1 358.4,345.4 361.1,346.8 361.1,344 	"/>
	<path id="XMLID_105_" class="st0" d="M133.2,339.6v2.1c3.1-0.8,2.8-1.8,3.6-5C134.7,337,133.2,337.3,133.2,339.6L133.2,339.6z"/>
	<path id="XMLID_106_" class="st0" d="M164.6,333.9l0.7-2l-7.1-2.3C159.3,331.2,162.2,333.7,164.6,333.9L164.6,333.9z"/>
	<polygon id="XMLID_107_" class="st0" points="335.3,329.4 329.7,331.1 330.5,334.1 	"/>
	<polygon id="XMLID_108_" class="st0" points="339.6,333.1 335.4,334.8 336.3,337.7 	"/>
	<polygon id="XMLID_109_" class="st0" points="155.2,334.1 157.9,337.7 158.9,335.3 	"/>
	<path id="XMLID_125_" class="st0" d="M199.3,340.1c0.1,0.2,0.1,0.4,0.2,0.5l0.1,0.3c0.1,0.4-0.1,0.8-0.6,1.3
		c-0.2,0.1-0.4,0.3-0.6,0.5c-0.2,0.2-0.4,0.3-0.6,0.4l1.1,2.7l1.3-0.5l0.5,1.3l-1.3,0.5l1,2.6l-1.3,0.5l-1.1-2.6l-1,0.4l-1.3,0.5
		c-1,0.4-1.9,0.5-2.7,0.3c-0.8-0.2-1.4-0.7-1.9-1.3c-0.4-0.6-0.7-1.1-0.8-1.5l-0.2-0.5c-0.1-0.2-0.1-0.4-0.2-0.7
		c-0.1-0.2-0.1-0.4-0.1-0.5c0-0.1,0-0.3,0-0.6c0-0.3,0-0.5,0.1-0.6c0-0.1,0.1-0.3,0.2-0.6c0.2-0.3,0.3-0.6,0.5-0.8
		c0.2-0.2,0.4-0.3,0.6-0.4l0.8-0.5l2.7-1.1c-0.1-0.2-0.3-0.3-0.4-0.4c-0.2-0.1-0.3-0.2-0.4-0.2c-0.1,0-0.2,0-0.3,0l-0.5,0.1
		l-0.5,0.2c-0.4,0.2-0.8,0.4-1.1,0.6c-0.3,0.2-0.5,0.4-0.6,0.7c-0.1,0.2-0.2,0.4-0.1,0.5l0.3,0.7l-1.3,0.5l-0.2-0.4
		c-0.1-0.3-0.1-0.6-0.1-1c0-0.4,0.1-0.7,0.3-1.1c0.2-0.3,0.5-0.7,1-1l0.7-0.4l0.8-0.3c0.5-0.2,0.8-0.3,1-0.4
		c0.2-0.1,0.4-0.1,0.6-0.1c0.1,0,0.3,0,0.4,0c0.1,0,0.3,0.1,0.4,0.1l0.8,0.4l0.5,0.4l0.1,0.3l0.1,0.3l-0.5,0.2
		c-0.3-0.9-0.3-1.6,0.1-1.9c0.1-0.1,0.2-0.2,0.4-0.3c0.1-0.1,0.2-0.2,0.4-0.3l0.6-0.3l0.2-0.1l0.3-0.1l0.5,1.2l-0.5,0.2
		c-0.2,0.1-0.4,0.2-0.6,0.3c-0.1,0.1-0.2,0.2-0.1,0.5c0.2-0.1,0.5-0.1,0.7-0.1c0.2,0,0.5,0.1,0.7,0.2c0.2,0.1,0.4,0.3,0.5,0.5
		C199.1,339.6,199.2,339.8,199.3,340.1L199.3,340.1z M198.1,340.8l-0.3-0.5c0,0-0.1-0.1-0.2-0.2c-0.2,0-0.5,0-0.7,0.1l-0.3,0.1
		l0.6,1.5c0.4-0.2,0.7-0.3,0.7-0.5C198.1,341.1,198.1,340.9,198.1,340.8L198.1,340.8z M197.5,346.4l-2.2-5.5l-0.4,0.1l-0.7,0.3
		l-0.6,0.2c-0.1,0-0.2,0.1-0.3,0.1c-0.1,0-0.3,0.1-0.5,0.3l-0.5,0.3c-0.1,0.1-0.2,0.1-0.3,0.2c-0.1,0-0.1,0.1-0.2,0.2
		c-0.2,0.1-0.3,0.4-0.4,0.6l-0.1,0.9c0,0.2,0,0.4,0.1,0.5c0,0.2,0.1,0.4,0.2,0.6c0.2,0.5,0.5,0.9,0.8,1.3c0.3,0.3,0.6,0.6,1,0.7
		c0.4,0.1,0.8,0.1,1.3,0.1l0.8-0.2l1-0.4L197.5,346.4L197.5,346.4z M211.9,337.6c0.2,0.5,0.3,0.9,0.3,1.4c0.1,0.4,0,1-0.1,1.7
		c-0.1,0.6-0.5,1.2-1.1,1.7c-0.3,0.2-0.7,0.4-1,0.6c-0.4,0.2-0.9,0.4-1.5,0.6l-0.4-1.2l0.8-0.3l0.6-0.3c0.4-0.2,0.6-0.4,0.8-0.6
		c0.1-0.1,0.1-0.2,0.2-0.3c0.1-0.1,0.2-0.3,0.3-0.5c0.1-0.2,0.2-0.5,0.1-0.9l-0.1-1.1l-0.3-1.1l-0.2-0.5l-0.3-0.5l-0.2-0.3l-0.4-0.4
		c-0.1-0.2-0.2-0.3-0.3-0.4c-0.1-0.1-0.2-0.2-0.5-0.4c-0.2-0.2-0.5-0.3-0.8-0.4c-0.3-0.1-0.6-0.1-0.8-0.1c-0.2,0-0.4,0-0.5,0
		c-0.1,0-0.3,0.1-0.5,0.1c-0.3,0.1-0.5,0.3-0.8,0.5l-0.6,0.5l-0.5,0.7l0.2-0.1c0.2-0.1,0.4-0.1,0.5-0.2c0.3-0.1,0.6-0.1,1-0.1
		c0.4,0,0.8,0.1,1.1,0.4c0.3,0.2,0.6,0.6,1,1c0.3,0.4,0.6,0.9,0.8,1.6l0.2,0.5c0.1,0.3,0.2,0.6,0.2,1c0.1,0.5,0,1-0.2,1.7
		c-0.3,0.7-0.7,1.3-1.2,1.7c-0.6,0.4-1.1,0.7-1.7,0.9c-0.6,0.2-1.1,0.3-1.5,0.3c-0.4,0-0.9-0.1-1.3-0.2c-0.4-0.1-0.8-0.4-1.2-0.9
		c-0.4-0.4-0.6-0.9-0.8-1.5c-0.1-0.3-0.2-0.5-0.2-0.6l-0.3,0.1l-0.4-1.3l2.5-4.2l-0.1-0.2c0,0-0.1-0.1-0.2-0.1l-0.4-0.1l-0.5,0.1
		c-0.2,0.1-0.4,0.2-0.5,0.4c-0.1,0.2-0.1,0.5,0,1l0.4,1.1l-1.3,0.4l-0.4-1.3c-0.2-0.6-0.2-1.2,0-1.8c0.2-0.5,0.7-0.9,1.5-1.2
		c0.5-0.2,1-0.3,1.3-0.2c0.3,0,0.5,0.1,0.9,0.3l0.5-0.6l0.3-0.3l0.5-0.3l0.6-0.3l0.4-0.1l0.7-0.2l0.6-0.1c0.2,0,0.3-0.1,0.4-0.1
		c0.1,0,0.4,0,0.7,0.1c0.5,0,1,0.2,1.5,0.6c0.1,0,0.2,0.1,0.3,0.2c0.1,0.1,0.2,0.2,0.3,0.3l0.6,0.6l0.7,1.4L211.9,337.6L211.9,337.6
		z M207.3,339.1l-0.2-0.5c-0.1-0.2-0.2-0.4-0.3-0.6c-0.2-0.3-0.4-0.5-0.6-0.7c-0.2-0.1-0.5-0.2-0.7-0.2c-0.3,0-0.4,0-0.5,0
		c-0.1,0-0.2,0-0.4,0.1l-1.3,0.5l-1.6,2.5l0.3-0.1c0,0.3,0,0.5,0.1,0.8c0,0.3,0.1,0.5,0.2,0.7c0.2,0.6,0.4,1,0.7,1.3
		c0.3,0.3,0.7,0.5,1.1,0.6c0.4,0.1,0.9,0,1.3-0.1l0.4-0.1c0.5-0.2,0.9-0.4,1.2-0.7c0.1-0.2,0.3-0.3,0.4-0.5c0.1-0.2,0.2-0.3,0.2-0.5
		c0.1-0.3,0.1-0.7,0.1-1.1l-0.1-0.6L207.3,339.1L207.3,339.1z M222.3,334.7c0.1,0.5,0.2,1,0.2,1.5c0,0.4,0,1-0.2,1.7
		c-0.2,0.6-0.6,1.1-1.2,1.6c-0.3,0.2-0.7,0.4-1.1,0.6c-0.4,0.2-0.9,0.3-1.5,0.5l-0.3-1.3l0.8-0.2l0.6-0.3c0.4-0.2,0.7-0.3,0.9-0.6
		c0.1-0.1,0.1-0.1,0.2-0.3c0.1-0.1,0.2-0.3,0.3-0.5c0.1-0.2,0.2-0.5,0.2-0.9l0-1.1l-0.2-1.1l-0.1-0.6l-0.2-0.5l-0.2-0.3l-0.3-0.5
		c-0.1-0.2-0.2-0.3-0.2-0.4c-0.1-0.1-0.2-0.2-0.4-0.4c-0.2-0.2-0.5-0.3-0.8-0.4c-0.3-0.1-0.6-0.1-0.8-0.1c-0.2,0-0.4,0-0.5,0
		c-0.1,0-0.3,0-0.5,0.1c-0.3,0.1-0.6,0.2-0.8,0.4l-0.7,0.5l-0.6,0.6l0.2-0.1c0.2-0.1,0.4-0.1,0.5-0.1c0.3-0.1,0.6-0.1,1,0
		c0.4,0,0.8,0.2,1.1,0.4c0.3,0.3,0.6,0.6,0.9,1.1c0.3,0.4,0.5,1,0.7,1.6l0.1,0.5c0.1,0.3,0.1,0.6,0.2,1c0.1,0.5,0,1-0.4,1.7
		c-0.3,0.7-0.8,1.2-1.3,1.6c-0.6,0.3-1.2,0.6-1.7,0.7c-0.6,0.2-1.1,0.2-1.6,0.2c-0.4,0-0.9-0.1-1.3-0.3c-0.4-0.2-0.8-0.5-1.1-0.9
		c-0.3-0.5-0.6-1-0.7-1.6c-0.1-0.3-0.1-0.5-0.2-0.6l-0.3,0.1l-0.4-1.3l2.8-4l-0.1-0.2c0,0-0.1-0.1-0.2-0.1l-0.4-0.1l-0.5,0.1
		c-0.2,0.1-0.4,0.2-0.5,0.4c-0.1,0.2-0.1,0.5,0,1l0.3,1.2l-1.3,0.4L210,334c-0.2-0.7-0.1-1.2,0.1-1.8c0.3-0.5,0.8-0.9,1.6-1.1
		c0.5-0.1,1-0.2,1.3-0.1c0.3,0,0.5,0.2,0.8,0.4l0.5-0.6l0.3-0.3l0.5-0.3l0.7-0.3l0.4-0.1l0.7-0.2l0.6,0c0.2,0,0.3,0,0.4,0
		c0.1,0,0.4,0,0.7,0.1c0.5,0,1,0.3,1.5,0.7c0.1,0,0.2,0.1,0.2,0.2c0.1,0.1,0.2,0.2,0.3,0.3l0.5,0.7l0.6,1.4L222.3,334.7L222.3,334.7
		z M217.6,335.9l-0.1-0.5c-0.1-0.2-0.2-0.4-0.3-0.6c-0.2-0.3-0.4-0.6-0.6-0.7c-0.2-0.2-0.4-0.3-0.7-0.3c-0.3,0-0.4-0.1-0.5,0
		c-0.1,0-0.2,0-0.4,0.1l-1.4,0.4l-1.8,2.4l0.3-0.1c0,0.3,0,0.5,0,0.8c0,0.3,0.1,0.5,0.1,0.7c0.2,0.6,0.3,1,0.6,1.3
		c0.3,0.3,0.7,0.5,1.1,0.6c0.4,0.1,0.9,0.1,1.3,0l0.4-0.1c0.5-0.1,1-0.4,1.3-0.7c0.2-0.1,0.3-0.3,0.4-0.4c0.1-0.1,0.2-0.3,0.2-0.5
		c0.1-0.3,0.2-0.7,0.2-1l0-0.6L217.6,335.9L217.6,335.9z M224.8,333.1c0.3,1.2,0.4,2.2,0.3,3.1c0,0.4-0.1,0.8-0.2,1.1
		c-0.1,0.3-0.2,0.6-0.4,0.9c-0.2,0.2-0.4,0.4-0.5,0.6c-0.2,0.1-0.3,0.3-0.5,0.4c-0.2,0.1-0.4,0.2-0.7,0.3c-0.3,0.1-0.6,0.2-1.1,0.3
		l-0.3-1.3l0.8-0.2c0.4-0.1,0.7-0.2,0.9-0.4c0.2-0.2,0.4-0.4,0.6-0.7c0.1-0.3,0.2-0.8,0.2-1.4c0-0.3,0-0.6,0-0.9
		c0-0.3-0.1-0.7-0.2-1.2c-0.2-0.7-0.4-1.3-0.6-1.8c-0.2-0.5-0.6-0.8-1-1.1c-0.2-0.1-0.3-0.2-0.5-0.2c-0.1,0-0.3-0.1-0.5-0.1
		c-0.2,0-0.5,0-0.9,0.1l-0.6,0.1l-0.3-1.3l1-0.2l0.6-0.1l0.8,0c0.6,0,1.2,0.4,1.9,1.3C224.1,331,224.5,332,224.8,333.1L224.8,333.1z
		 M238.1,331.4l0.1,1.1l0,1.2c-0.1,0.8-0.3,1.5-0.8,2c-0.3,0.3-0.5,0.6-0.7,0.7c-0.2,0.2-0.4,0.3-0.7,0.4l-0.9,0.3l-0.8,0.1l-0.3,0
		l-0.5,0.1l-0.2-1.5l1.1-0.1c0.1,0,0.4-0.1,0.7-0.3c0.3-0.1,0.6-0.4,0.9-0.6c0.2-0.3,0.4-0.6,0.5-1.1c0.1-0.5,0.2-0.9,0.1-1.4
		c-0.1-0.7-0.3-1.4-0.5-2.1c-0.1-0.3-0.2-0.5-0.2-0.6c-0.1-0.3-0.3-0.6-0.6-0.8c-0.3-0.3-0.7-0.5-1.1-0.7c-0.2-0.1-0.4-0.1-0.6-0.1
		c-0.2,0-0.4,0-0.7,0c-0.3,0-0.7,0.2-1,0.3c-0.3,0.1-0.6,0.3-0.8,0.5c-0.2,0.2-0.3,0.3-0.4,0.5l0.1-0.2l-0.1,0c0.3,0,0.7,0,1.1,0.1
		c0.3,0.1,0.5,0.1,0.7,0.3c0.2,0.1,0.4,0.3,0.6,0.5c0.2,0.2,0.3,0.4,0.4,0.7c0.1,0.2,0.2,0.5,0.3,0.7c0.1,0.3,0.1,0.5,0.2,0.7
		c0.1,0.2,0.1,0.5,0.1,0.7c0,0.3,0.1,0.5,0,0.8c0,0.3,0,0.5-0.1,0.8c-0.1,0.5-0.2,0.9-0.4,1.3c-0.2,0.4-0.5,0.7-0.9,1
		c0,0-0.1,0.1-0.4,0.3c-0.2,0.2-0.4,0.3-0.6,0.4l-0.7,0.3l-0.8,0.2c-1,0.1-1.7,0.1-2.2-0.1c-0.2-0.1-0.4-0.2-0.6-0.3
		c0,0-0.2-0.1-0.5-0.3c-0.1,0-0.1-0.1-0.2-0.2c-0.2-0.2-0.3-0.4-0.5-0.7l-0.5-1.4l-0.2-1.7l-0.2-1.5l1.4-0.2
		c0.1,0.4,0.2,0.5,0.4,0.5c0.3,0,0.6-0.2,0.7-0.4l0.4-1l0.4-1c0-0.2-0.1-0.4-0.2-0.6c0-0.1-0.1-0.2-0.2-0.2c-0.1,0-0.1-0.1-0.2-0.1
		c0,0-0.2,0-0.4,0c-0.2,0-0.4,0.1-0.5,0.2c-0.1,0.1-0.1,0.2-0.2,0.4c0,0.2,0,0.4,0,0.5c0,0.2,0,0.5,0.1,1l-1.6,0.2
		c-0.1-0.6-0.1-1.1-0.1-1.5c0-0.4,0.1-0.8,0.2-1.1c0.3-0.7,0.9-1.1,1.8-1.2c0.3,0,0.5-0.1,0.7-0.1c0.2,0,0.3,0,0.4,0.1
		c0.1,0,0.3,0.1,0.5,0.2c0.3,0.2,0.5,0.3,0.5,0.4l-0.1,0.1c0,0,0.1-0.1,0.3-0.3l0.4-0.4c0.4-0.3,1-0.5,1.9-0.7
		c0.4-0.1,0.7-0.1,1.1-0.1c0.3,0,0.7,0.1,1.1,0.1c0.2,0.1,0.5,0.1,0.7,0.2c0.2,0.1,0.4,0.2,0.6,0.3c0.1,0,0.2,0.2,0.4,0.4
		c0.2,0.2,0.4,0.4,0.5,0.5c0.3,0.4,0.6,0.9,0.8,1.5l0.3,0.9L238.1,331.4L238.1,331.4z M232.9,332.8c-0.1-0.5-0.2-0.8-0.3-1.2
		c-0.1-0.3-0.4-0.6-0.6-0.8c-0.1-0.1-0.2-0.1-0.3-0.2c-0.1,0-0.2-0.1-0.4-0.1l-0.9,0l-0.1,0l0.1,0.2l-0.2,0.2l-0.3,0.7
		c-0.2,0.4-0.4,0.7-0.7,1c-0.3,0.3-0.7,0.5-1.1,0.5l-0.5,0l0,0.2l-0.1,0l0,0.3l0.1,0.9c0,0.3,0.1,0.5,0.2,0.7
		c0.1,0.2,0.2,0.4,0.4,0.6c0.2,0.3,0.5,0.5,0.9,0.6c0.2,0,0.4,0.1,0.7,0.1c0.3,0,0.6,0,0.9,0c0.3,0,0.5-0.1,0.6-0.2
		c0.1-0.1,0.4-0.2,0.7-0.4c0.4-0.3,0.7-0.6,0.8-1l0.1-0.5l0.1-0.5L232.9,332.8L232.9,332.8z M245.6,330.6c0.1,0.6,0,1.1-0.1,1.6
		c-0.1,0.5-0.3,0.9-0.6,1.3c-0.5,0.8-1.3,1.3-2.2,1.4c-0.9,0.1-1.7-0.2-2.4-1c-0.7-0.7-1.1-1.7-1.2-2.8c-0.1-1.1,0.1-2.1,0.7-2.9
		c0.6-0.9,1.3-1.3,2.2-1.4c0.9-0.1,1.7,0.3,2.4,1C245.1,328.6,245.5,329.5,245.6,330.6L245.6,330.6z M244.3,330.7
		c-0.1-0.7-0.3-1.4-0.7-1.9c-0.2-0.3-0.4-0.5-0.6-0.6c-0.2-0.1-0.5-0.1-0.7-0.1c-0.5,0-1,0.4-1.3,0.9c-0.3,0.6-0.5,1.2-0.4,2
		c0.1,0.7,0.3,1.4,0.7,1.9c0.4,0.5,0.9,0.7,1.4,0.7c0.5,0,0.9-0.4,1.3-0.9C244.2,332.1,244.4,331.5,244.3,330.7L244.3,330.7z
		 M263.1,336.6c0,0.7-0.2,1.2-0.4,1.6c-0.1,0.2-0.2,0.4-0.2,0.4c-0.1,0.2-0.3,0.4-0.6,0.6c-0.3,0.3-0.7,0.5-1.2,0.6
		c-0.4,0.1-0.9,0.2-1.4,0.1c-0.5,0-1-0.2-1.5-0.4c-0.6-0.2-1-0.6-1.3-1.3c-0.2-0.5-0.3-0.9-0.2-1.4c0-0.2,0-0.4,0-0.5
		c0-0.1,0-0.2,0-0.2c0.1,0,0.2,0,0.2,0c0,0-0.1,0-0.1,0l-0.3-0.2c-0.2-0.1-0.4-0.2-0.8-0.4c-0.3-0.2-0.6-0.6-0.9-1.1
		c-0.3-0.6-0.4-1-0.5-1.4l0-0.9l0-0.5c0-0.5,0.1-1,0.2-1.4c0.1-0.4,0.3-0.8,0.6-1.1c0.5-0.7,1.1-1.1,1.7-1.2
		c0.6-0.1,1.1-0.2,1.6-0.1l2.6,0.2l-0.1-0.3c-0.1-0.2-0.2-0.3-0.4-0.4l-0.6-0.3l-0.9-0.1c-1-0.1-1.7,0-1.9,0.2l-0.4,0.5
		c-0.1,0.1-0.1,0.2-0.1,0.3c0,0.1,0,0.2-0.1,0.3l-1.4-0.1c0.1-0.8,0.3-1.3,0.7-1.8c0.4-0.4,0.9-0.6,1.4-0.8c0.6-0.1,1.2-0.1,1.9-0.1
		c0.7,0,1.2,0.2,1.7,0.4c0.5,0.2,1,0.5,1.3,0.9c0.1,0.2,0.2,0.4,0.3,0.6c0.1,0.2,0.1,0.4,0.2,0.6c0,0.2,0,0.5,0,0.7
		c0,0.3,0,0.5,0,0.8l-2.3-0.2l-0.9-0.1c-1.4-0.1-2.3,0-2.8,0.4c-0.1,0.1-0.2,0.2-0.3,0.3c-0.1,0.1-0.1,0.2-0.2,0.4
		c-0.1,0.2-0.1,0.3-0.2,0.5c-0.1,0.2-0.1,0.4-0.1,0.7c0,0.6,0,1.3,0.2,1.9c0.1,0.5,0.4,0.9,0.7,1.1c0.3,0.2,0.8,0.3,1.5,0.5l1.1,0.1
		c0.4,0,0.8,0,1.4-0.1c0.3,0,0.5-0.1,0.7-0.2c0.2-0.1,0.5-0.2,0.8-0.5l-0.1,1.6c-0.4,0.2-1,0.3-1.7,0.4l-1.1,0.1l-1.1-0.1l-0.1,0.2
		l0,0.4l0,0.7c0,0.2,0.2,0.3,0.5,0.6c0.3,0.2,0.7,0.3,1.2,0.4c0.5,0,0.9,0,1.1-0.2c0.3-0.1,0.5-0.3,0.6-0.4c0.1-0.1,0.2-0.2,0.3-0.5
		c0.1-0.2,0.2-0.3,0.2-0.5l0-0.5L263.1,336.6L263.1,336.6z M273,332.1c-0.1,0.5-0.3,1.1-0.5,1.8c-0.3,0.7-0.7,1.3-1.1,1.9
		c-0.4,0.6-1.1,1-1.9,1.3c-0.8,0.3-1.7,0.4-2.5,0.3c-0.4-0.1-0.8-0.1-1.1-0.3c-0.3-0.1-0.7-0.3-1.1-0.5c-0.6-0.4-1.1-1-1.4-1.7
		c-0.1-0.3-0.2-0.7-0.3-1c-0.1-0.3-0.1-0.7-0.2-1c0-0.3,0-0.7,0-1c0-0.4,0-0.7,0.1-1c0.1-0.7,0.2-1.3,0.4-1.6
		c0.1-0.2,0.1-0.3,0.2-0.5c0.1-0.1,0.2-0.3,0.3-0.5l0.5-0.6c0.2-0.2,0.5-0.4,0.9-0.6c0.4-0.1,0.7-0.1,1.1-0.1
		c0.4,0.1,0.8,0.2,1.1,0.5c0.1,0.1,0.2,0.3,0.3,0.6l0,0.6c0,0.1,0,0.2,0,0.3c-0.1,0.2-0.1,0.3-0.1,0.4l-0.2,0.6l-0.2,0.6l-0.1,0.4
		c0,0.3,0,0.6,0.2,0.8c0.2,0.2,0.4,0.3,0.7,0.4c0.4,0.1,0.7-0.1,0.9-0.3c0.3-0.3,0.5-0.8,0.5-1.3l0.1-0.8c0-0.3-0.1-0.5-0.3-0.8
		c-0.1-0.3-0.6-0.5-1.4-0.6l0.2-1.2l0.6,0.1l0.3,0l0.6,0.2c0.4,0.1,0.8,0.6,1,1.3c0.3,0.6,0.4,1.3,0.2,2.1l-0.1,0.5
		c0,0.2-0.1,0.4-0.2,0.6c-0.1,0.2-0.2,0.4-0.2,0.5c-0.1,0.1-0.3,0.3-0.5,0.5c-0.3,0.2-0.6,0.4-1,0.6c-0.2,0.1-0.4,0.1-0.6,0.1
		c-0.1,0-0.3,0-0.5,0l-0.6-0.2c-0.3-0.1-0.7-0.4-1-0.8c-0.3-0.5-0.5-1-0.4-1.6l0.2-0.9l0.5-1l0-0.4c0-0.2,0.1-0.4,0.1-0.4l-0.3,0
		c-0.3,0-0.5,0.1-0.8,0.4c-0.2,0.2-0.3,0.4-0.3,0.6c-0.1,0.1-0.1,0.3-0.2,0.5l-0.2,0.8l-0.1,0.6l-0.1,0.5c0,0.2,0,0.4,0,0.6
		c0,0.2,0,0.4,0,0.6c0,0.3,0.1,0.5,0.2,0.8c0.2,0.5,0.5,1,0.9,1.4c0.5,0.4,1.1,0.7,1.7,0.8c0.7,0.1,1.4,0,2-0.3c0.6-0.3,1-0.6,1.3-1
		c0.2-0.3,0.5-0.7,0.8-1.3c0.3-0.6,0.5-1.4,0.6-2.4c0.1-1,0.2-1.9,0-2.7c-0.1-0.8-0.4-1.5-0.9-2.1c-0.5-0.6-1.3-0.9-2.3-1.1
		c-0.8-0.1-1.5,0-2.2,0.3c-0.7,0.3-1.2,0.9-1.5,1.7l-1.2-0.2l0.1-0.7l0.2-0.4l0.2-0.3l0.5-0.5c0.1-0.2,0.3-0.3,0.4-0.4
		c0.1-0.1,0.3-0.2,0.5-0.4c0.1,0,0.2-0.1,0.5-0.2c0.2-0.1,0.4-0.2,0.5-0.2c0.3-0.1,0.7-0.1,1.3-0.1l1.3,0.1l0.5,0.1
		c0.3,0,0.5,0.1,0.8,0.2c0.2,0.1,0.4,0.2,0.7,0.3c0.2,0.2,0.5,0.4,0.8,0.8c0.5,0.6,0.9,1.3,1.1,2.1c0.1,0.3,0.2,0.7,0.2,1.1
		c0,0.4,0,0.8,0,1.2L273,332.1L273,332.1z M283,336.9c-0.3,0.8-0.6,1.6-1.2,2.3c-0.6,0.6-1.1,1-1.7,1.1l-0.6,0.1l-0.5,0l-0.6-0.1
		l-0.6-0.3l-0.5-0.4l-0.2-0.3l-0.2-0.3l0-0.3l0.1-0.1c-0.1,0-0.1,0.1-0.2,0.1c-0.1,0-0.2,0.1-0.4,0.2c-0.3,0.1-0.6,0.2-0.9,0.2
		c-0.1,0-0.3,0-0.5,0c-0.2,0-0.3-0.1-0.5-0.1c-0.3-0.1-0.6-0.3-1-0.5c-0.4-0.3-0.7-0.6-0.9-1.1c-0.1-0.2-0.1-0.3-0.2-0.4
		c0-0.1-0.1-0.4-0.1-0.8c0-0.1,0-0.4,0.1-0.7c0-0.3,0.1-0.6,0.1-0.8l0.3-1.3c0.1-0.4,0.4-1,0.7-1.8c0.3-0.8,0.9-1.5,1.7-2
		c0.8-0.6,1.5-0.8,2.1-0.8c0.6,0,1,0.1,1.3,0.2l0.4,0.1c0.1,0,0.2,0.1,0.3,0.1c0.1,0.1,0.2,0.1,0.4,0.3l-0.4,1.2l-0.7-0.3l-0.4-0.1
		l-0.4-0.1c-0.2,0-0.3-0.1-0.5-0.1c-0.1,0-0.3,0-0.3,0c-0.1,0-0.2,0-0.3,0.1c-0.1,0.1-0.3,0.1-0.4,0.2c-0.1,0.1-0.2,0.2-0.4,0.3
		c-0.3,0.2-0.6,0.5-0.9,1c-0.3,0.5-0.6,1.1-0.8,1.8l-0.3,0.9c0,0.1-0.1,0.3-0.1,0.3c0,0.1-0.1,0.3-0.1,0.6c-0.1,0.4-0.1,0.7,0,1.1
		c0,0.3,0.1,0.6,0.4,0.9c0.3,0.3,0.5,0.4,0.7,0.5c0.4,0.1,0.7,0,0.9-0.1c0.2-0.2,0.4-0.4,0.6-0.7l0.3-0.7l0.1-0.4l0.5-1.7l1.5,0.5
		l-0.5,1.6l-0.3,1c-0.1,0.2-0.1,0.4-0.1,0.6c0,0.2,0.1,0.4,0.3,0.6c0.2,0.2,0.4,0.3,0.6,0.4c0.1,0,0.2,0,0.5,0c0.2,0,0.4,0,0.6-0.2
		c0.1-0.1,0.2-0.1,0.3-0.3c0.1-0.1,0.3-0.3,0.5-0.5c0.3-0.4,0.6-1,0.8-1.7l0.1-0.6l0.1-0.5c0.1-0.5,0-0.8-0.1-1.1
		c-0.1-0.3-0.6-0.5-1.4-0.7l-2-0.6c0.3-1,0.5-1.5,0.7-1.8c0.1-0.2,0.3-0.4,0.4-0.5c0.1-0.1,0.3-0.2,0.5-0.3c0.1-0.1,0.3-0.1,0.3-0.1
		c0.1,0,0.3-0.1,0.6-0.1c0.3,0,0.7,0,1.2,0.2c0.9,0.3,1.4,0.7,1.6,1.2c0.1,0.2,0.1,0.4,0.2,0.6c0,0.2,0.1,0.4,0.1,0.5l-0.1,0.7
		l-0.2,0.6l-1.2-0.4l0.1-0.5c0.2-0.8-0.1-1.3-1-1.5c-0.3-0.1-0.6-0.1-0.8,0c-0.2,0.1-0.4,0.3-0.5,0.6l0.5,0.1l0.5,0.2
		c0.4,0.1,0.7,0.2,1,0.4c0.3,0.1,0.6,0.3,0.8,0.7c0.1,0.2,0.2,0.3,0.3,0.6c0.1,0.2,0.1,0.4,0.2,0.7c0,0.5-0.1,1-0.2,1.5l-0.1,0.4
		L283,336.9L283,336.9z"/>
	<path id="XMLID_130_" class="st0" d="M294,340.7l-0.5,1l-0.6,1c-0.5,0.7-1,1.1-1.7,1.4c-0.4,0.1-0.7,0.2-1,0.3
		c-0.3,0.1-0.5,0.1-0.8,0l-1-0.2l-0.7-0.3l-0.3-0.1l-0.5-0.2l0.6-1.4l1,0.4c0.1,0.1,0.4,0.1,0.7,0.1c0.4,0,0.7,0,1.1-0.1
		c0.3-0.1,0.7-0.4,1-0.7c0.3-0.3,0.6-0.7,0.8-1.2c0.3-0.7,0.5-1.4,0.6-2.1c0.1-0.3,0.1-0.5,0.1-0.7c0-0.4,0-0.7-0.1-1
		c-0.1-0.4-0.3-0.8-0.6-1.1c-0.1-0.2-0.3-0.3-0.4-0.4c-0.2-0.1-0.4-0.2-0.6-0.3c-0.3-0.1-0.7-0.2-1-0.2c-0.3,0-0.7,0-0.9,0.1
		c-0.2,0.1-0.4,0.2-0.6,0.3l0.2-0.1l-0.1,0c0.3,0.1,0.6,0.3,1,0.6c0.2,0.2,0.4,0.4,0.5,0.6c0.1,0.2,0.2,0.4,0.2,0.7
		c0.1,0.3,0.1,0.5,0.1,0.8c0,0.3,0,0.5-0.1,0.8c-0.1,0.3-0.1,0.5-0.2,0.7c-0.1,0.2-0.1,0.4-0.2,0.7c-0.1,0.3-0.2,0.5-0.3,0.7
		c-0.1,0.2-0.3,0.5-0.4,0.7c-0.3,0.4-0.6,0.7-1,1c-0.4,0.2-0.8,0.4-1.3,0.5c0,0-0.2,0-0.5,0.1c-0.3,0-0.5,0.1-0.7,0.1l-0.8-0.1
		l-0.8-0.2c-0.9-0.3-1.5-0.7-1.9-1.2c-0.1-0.2-0.3-0.4-0.4-0.5c0,0-0.1-0.2-0.2-0.5c0-0.1-0.1-0.2-0.1-0.3c0-0.2-0.1-0.5-0.1-0.8
		l0.3-1.4l0.6-1.6l0.5-1.4l1.3,0.5c-0.1,0.3-0.1,0.6,0.1,0.6c0.3,0.1,0.6,0.1,0.8,0l0.8-0.6l0.8-0.7c0.1-0.2,0.1-0.4,0.1-0.6
		c0-0.1,0-0.2,0-0.3c0-0.1-0.1-0.1-0.1-0.1c0,0-0.1-0.1-0.3-0.2c-0.2-0.1-0.4-0.1-0.5,0c-0.1,0-0.2,0.1-0.4,0.3
		c-0.1,0.2-0.2,0.3-0.3,0.5c-0.1,0.2-0.2,0.4-0.4,0.9l-1.5-0.6c0.2-0.6,0.4-1,0.7-1.4c0.2-0.4,0.5-0.6,0.8-0.9
		c0.6-0.5,1.3-0.5,2.2-0.2c0.3,0.1,0.5,0.2,0.6,0.3c0.1,0.1,0.2,0.2,0.3,0.3c0.1,0.1,0.2,0.2,0.3,0.4c0.2,0.3,0.2,0.5,0.2,0.6
		l-0.1,0c0,0,0.2-0.1,0.4-0.1l0.6-0.2c0.5-0.1,1.2,0,2,0.3c0.4,0.1,0.7,0.3,1,0.5c0.3,0.2,0.6,0.4,0.9,0.6c0.2,0.2,0.3,0.3,0.5,0.5
		c0.1,0.2,0.3,0.4,0.3,0.6c0,0.1,0.1,0.3,0.2,0.5c0.1,0.3,0.1,0.5,0.2,0.7c0.1,0.5,0.1,1-0.1,1.7l-0.2,0.9L294,340.7L294,340.7z
		 M288.8,339.4c0.2-0.4,0.3-0.8,0.3-1.2c0-0.4,0-0.7-0.2-1c-0.1-0.1-0.1-0.2-0.2-0.3c-0.1-0.1-0.2-0.2-0.3-0.3l-0.8-0.4l-0.1,0
		l0,0.2l-0.3,0l-0.6,0.5c-0.3,0.2-0.7,0.4-1.1,0.5c-0.4,0.1-0.8,0.1-1.2-0.1l-0.4-0.2l-0.1,0.2l-0.1,0l-0.1,0.3l-0.3,0.8
		c-0.1,0.3-0.2,0.5-0.2,0.7c0,0.2,0,0.5,0,0.7c0.1,0.4,0.2,0.7,0.5,1c0.1,0.1,0.3,0.3,0.6,0.4c0.2,0.1,0.5,0.3,0.8,0.4
		c0.3,0.1,0.5,0.2,0.6,0.2c0.2,0,0.4,0,0.8,0c0.5,0,0.9-0.2,1.2-0.5l0.3-0.4l0.3-0.4L288.8,339.4L288.8,339.4z M304.5,348.1
		c-0.2,0.4-0.6,0.8-0.9,1.2c-0.3,0.3-0.7,0.7-1.3,1c-0.5,0.3-1.2,0.4-2,0.2c-0.4-0.1-0.8-0.2-1.1-0.4c-0.4-0.2-0.8-0.4-1.4-0.7
		l0.7-1.1l0.7,0.4l0.6,0.3c0.4,0.2,0.7,0.2,1,0.2c0.1,0,0.2,0,0.3,0c0.1,0,0.3-0.1,0.6-0.1c0.2-0.1,0.5-0.2,0.8-0.5l0.8-0.8l0.7-0.9
		l0.3-0.5l0.2-0.5l0.1-0.4l0.1-0.6c0.1-0.2,0.1-0.3,0.1-0.5c0-0.1,0-0.3,0-0.6c0-0.3-0.1-0.6-0.2-0.9c-0.2-0.3-0.3-0.5-0.5-0.7
		c-0.1-0.2-0.3-0.3-0.4-0.4c-0.1-0.1-0.2-0.2-0.4-0.3c-0.3-0.2-0.5-0.3-0.9-0.3l-0.8-0.1l-0.9,0l0.2,0.1c0.2,0.1,0.3,0.2,0.5,0.3
		c0.2,0.1,0.5,0.4,0.7,0.7c0.3,0.3,0.4,0.7,0.4,1.1c0,0.4,0,0.9-0.1,1.4c-0.1,0.5-0.3,1.1-0.7,1.6l-0.3,0.5
		c-0.1,0.2-0.3,0.5-0.6,0.8c-0.3,0.4-0.8,0.7-1.5,0.9c-0.7,0.2-1.4,0.3-2.1,0.2c-0.7-0.2-1.2-0.4-1.7-0.7c-0.5-0.3-0.9-0.6-1.2-1
		c-0.3-0.3-0.5-0.7-0.7-1.1c-0.2-0.4-0.2-0.9-0.1-1.5c0.1-0.6,0.3-1.1,0.6-1.6c0.2-0.3,0.3-0.5,0.3-0.6l-0.3-0.2l0.7-1.2l4.9-0.8
		l0.1-0.2c0,0,0-0.1-0.1-0.3l-0.2-0.3l-0.5-0.3c-0.2-0.1-0.4-0.1-0.6-0.1c-0.2,0-0.5,0.3-0.7,0.7l-0.6,1l-1.2-0.7l0.7-1.2
		c0.4-0.6,0.8-1,1.4-1.1c0.5-0.2,1.2,0,1.9,0.4c0.5,0.3,0.8,0.6,1,0.8c0.2,0.2,0.3,0.5,0.3,0.9l0.8,0l0.4,0l0.6,0.2l0.6,0.3l0.3,0.2
		l0.6,0.4l0.4,0.4c0.1,0.1,0.2,0.2,0.3,0.3c0.1,0.1,0.2,0.3,0.4,0.6c0.3,0.4,0.5,0.9,0.5,1.5c0,0.1,0,0.2,0,0.3c0,0.1,0,0.3,0,0.4
		l-0.1,0.8l-0.6,1.4L304.5,348.1L304.5,348.1z M300.4,345.6l0.3-0.4c0.1-0.2,0.2-0.4,0.2-0.6c0.1-0.4,0.1-0.7,0.1-0.9
		c0-0.3-0.1-0.5-0.3-0.7c-0.2-0.2-0.3-0.4-0.3-0.4c-0.1,0-0.2-0.1-0.3-0.2l-1.2-0.7l-3,0.4l0.3,0.2c-0.2,0.2-0.4,0.4-0.6,0.6
		c-0.2,0.2-0.3,0.4-0.4,0.6c-0.3,0.5-0.5,1-0.6,1.3c0,0.4,0.1,0.8,0.3,1.2c0.2,0.4,0.5,0.7,0.9,0.9l0.4,0.2c0.5,0.3,0.9,0.4,1.4,0.5
		c0.2,0,0.4,0,0.6,0c0.2,0,0.4-0.1,0.5-0.1c0.3-0.2,0.6-0.3,0.9-0.6l0.4-0.5L300.4,345.6L300.4,345.6z"/>
	<path id="XMLID_141_" class="st0" d="M234.6,358.2v0.6c0,0.1,0,0.2,0,0.4c0,0.1-0.1,0.3-0.1,0.5c0,0.5-0.3,1-0.6,1.5
		c-0.1,0.2-0.3,0.4-0.5,0.6c-0.2,0.2-0.4,0.4-0.6,0.5c-0.3,0.2-0.5,0.3-0.6,0.3c-0.2,0.1-0.4,0.2-0.5,0.2l-0.9,0.2l-1.1,0.1
		c-0.5,0-0.9,0-1.3-0.1L228,363l-0.4-0.1c-0.3-0.1-0.7-0.4-1.1-0.6c-0.4-0.3-0.8-0.7-1.1-1.4c-0.3-0.7-0.4-1.4-0.4-2.1
		c0-0.8,0.1-1.4,0.2-1.9c0.2-0.5,0.5-0.9,0.8-1.1c0.3-0.2,0.6-0.4,0.8-0.4l0.7-0.1h1.4c0-0.4-0.1-0.6-0.3-0.7
		c-0.2-0.1-0.4-0.2-0.6-0.2c-0.3,0-0.5,0-0.7,0.1c-0.2,0.1-0.3,0.2-0.4,0.4c0,0.1-0.1,0.2-0.1,0.4c0,0.2,0,0.3,0,0.6h-1.2l0-0.5
		c0-0.6,0.2-1.1,0.7-1.5c0.5-0.4,0.9-0.6,1.4-0.6c0.7,0,1.3,0.1,1.7,0.3c0.3,0.1,0.5,0.3,0.6,0.6c0.1-0.2,0.3-0.4,0.5-0.6
		c0.3-0.2,0.6-0.3,0.9-0.4h0.6c0.4,0,0.8,0.1,1.2,0.2c0.4,0.2,0.6,0.4,0.8,0.8c0.2,0.4,0.2,0.7,0.2,1.1l-0.1,0.6h-0.5h-0.7l0.1-0.7
		c0-0.1,0-0.2-0.1-0.4c0,0-0.2-0.1-0.4-0.3c-0.2-0.1-0.4-0.1-0.7-0.1c-0.2,0-0.5,0.1-0.8,0.3c-0.2,0.2-0.3,0.4-0.3,0.6h1.9
		c0.2,0,0.4,0,0.5,0c0.1,0,0.2,0.1,0.3,0.1c0.2,0.1,0.4,0.2,0.7,0.5C234.4,356.5,234.6,357.3,234.6,358.2L234.6,358.2z M233.3,358.6
		v-0.3c0-0.5-0.1-1-0.2-1.4c-0.2-0.4-0.5-0.6-1-0.6h-2.3h-1.7c-0.5,0-0.9,0.1-1.2,0.3c-0.3,0.2-0.5,0.5-0.5,0.8l-0.1,0.7v0.5
		c0,0.3,0,0.7,0.1,1.1c0.1,0.4,0.2,0.7,0.4,1.1c0.2,0.4,0.6,0.6,1.1,0.8c0.5,0.2,1.1,0.3,1.8,0.3c0.6,0,1.1-0.1,1.5-0.2
		c0.4-0.1,0.8-0.3,1.1-0.7c0.4-0.3,0.6-0.7,0.8-1.2c0.1-0.3,0.1-0.4,0.1-0.5C233.3,359.1,233.3,358.8,233.3,358.6L233.3,358.6z
		 M248.7,358.2c0,0.6-0.1,1.2-0.2,1.7l-0.2,0.7l-0.3,0.6c-0.1,0.2-0.2,0.4-0.3,0.5c-0.1,0.2-0.2,0.3-0.4,0.4
		c-0.1,0.1-0.3,0.2-0.4,0.3c-0.1,0.1-0.3,0.2-0.4,0.3l-0.6,0.2l-0.5,0.1c-0.3,0-0.6,0-1-0.1c-0.4-0.1-0.7-0.4-0.9-0.9
		c-0.1-0.3-0.2-0.5-0.2-0.7c0-0.2-0.1-0.5-0.1-0.9h1.3c0,0.2,0,0.3,0,0.5c0,0.2,0,0.3,0.1,0.4c0,0.1,0.2,0.2,0.4,0.4
		c0.2,0.1,0.4,0.2,0.6,0.2c0.1,0,0.2,0,0.3-0.1c0.1,0,0.3-0.2,0.5-0.3c0.3-0.3,0.6-0.8,0.8-1.6c0.2-0.7,0.3-1.5,0.3-2.3
		c0-0.6,0-1.1-0.1-1.4c0-0.3-0.1-0.5-0.1-0.6c0-0.1-0.1-0.3-0.2-0.6c-0.2-0.6-0.5-0.9-0.8-0.9c-0.2,0-0.4,0.1-0.4,0.3l-0.2,1v1.7
		v1.4h-1.2V358v-0.5v-0.4v-0.5v-0.3V356c0-0.1,0-0.3,0-0.4l-0.1-0.5c-0.1-0.3-0.2-0.6-0.3-0.7c-0.1-0.1-0.2-0.2-0.3-0.2
		c-0.1,0-0.2,0.1-0.3,0.2c-0.1,0.2-0.1,0.3-0.1,0.4c0,0.1,0,0.2,0,0.4l0,1.3l0.1,1.2v0.4c0,0.7-0.1,1.3-0.2,1.9
		c-0.1,0.5-0.3,1-0.6,1.5c-0.3,0.5-0.7,0.9-1.2,1.1c-0.5,0.2-1.1,0.4-1.8,0.5h-0.8l-0.6-0.1l-0.4-0.1c-0.1,0-0.3-0.1-0.4-0.1
		c-0.1,0-0.2-0.1-0.3-0.2l-0.4-0.1c-0.1,0-0.2-0.1-0.3-0.1c-0.1,0-0.2,0-0.2,0l-0.3,0l-0.1,0.1l-0.2,0.5h-1l0-0.6c0-0.5,0-1,0.1-1.5
		c0.1-0.5,0.3-0.9,0.6-1.2l0.4-0.4l0.1-0.1c-0.1-0.2-0.2-0.5-0.3-0.7l-0.1-0.6l0-0.8l0-1c0-0.5,0.2-0.9,0.5-1.4
		c0.3-0.5,0.5-0.9,0.9-1.1c0.2-0.1,0.3-0.2,0.4-0.3c0.1-0.1,0.3-0.2,0.6-0.2l0.5-0.1l0.6-0.1c0.5,0,1,0.1,1.3,0.2
		c0.4,0.1,0.7,0.3,0.9,0.4l0.6-0.6l0.8-0.8h1.7l-1.4,1.3c-0.1,0.1-0.2,0.2-0.3,0.3c-0.1,0.1-0.3,0.3-0.5,0.5l0.1,0.1l-0.1-0.2
		c0,0,0,0,0,0c0-0.1,0-0.1,0.1-0.2c0.1-0.3,0.3-0.5,0.5-0.7c0.2-0.2,0.5-0.4,0.9-0.4l0.5,0.1c0.3,0,0.5,0.2,0.6,0.4l0.1,0.1l0.1-0.2
		c0.1-0.1,0.2-0.3,0.4-0.4c0.2-0.1,0.5-0.1,0.9-0.1c0.4,0,0.8,0.2,1.2,0.6c0.3,0.4,0.6,0.8,0.8,1.4l0.1,0.7l0.1,0.7L248.7,358.2
		L248.7,358.2z M242.1,358.2c0-0.6-0.1-1.1-0.2-1.5c-0.1-0.2-0.2-0.4-0.3-0.7c-0.1-0.3-0.3-0.5-0.5-0.8c-0.4-0.6-1-0.9-1.9-0.9h-0.3
		l-0.4,0.1c-0.2,0-0.4,0.1-0.6,0.3c-0.3,0.1-0.5,0.4-0.7,0.8c-0.2,0.4-0.4,0.9-0.4,1.5c0,0.6,0,1.1,0.1,1.4c0.1,0.3,0.3,0.6,0.5,0.8
		c0.3,0.2,0.6,0.4,1,0.4c0.1,0,0.2,0,0.3,0c0.1,0,0.2-0.1,0.3-0.1c0.2-0.1,0.3-0.2,0.4-0.4c0.1-0.2,0.2-0.4,0.2-0.7l0.1-0.9V357
		l1.2-0.1v0.6v0.4v0.6c-0.1,0.8-0.5,1.4-1.2,1.9l-0.6,0.2l-0.7,0.1l-0.7-0.1c-0.2,0-0.5-0.2-0.8-0.4l-0.2,0.2
		c-0.1,0.1-0.1,0.2-0.2,0.3c-0.1,0.1-0.2,0.2-0.2,0.3l-0.3,0.6l0,0l0.5-0.1h0.3l0.5,0.1l0.9,0.2l0.5,0.1h0.5h0.3h0.2
		c0.2,0,0.4-0.1,0.6-0.1c0.2-0.1,0.4-0.1,0.6-0.2c0.3-0.2,0.6-0.5,0.7-0.9c0.1-0.2,0.2-0.4,0.2-0.6c0.1-0.2,0.1-0.4,0.2-0.6
		L242.1,358.2L242.1,358.2z M246.7,353.1l-0.9,0l0-3.3h0.9L246.7,353.1L246.7,353.1z M258.7,357.8c0,0.6,0,1.1-0.1,1.5
		c0,0.2,0,0.4-0.1,0.8c0,0.3-0.1,0.6-0.3,1c-0.2,0.7-0.6,1.3-1.2,1.6c-0.5,0.3-1.1,0.4-1.6,0.4l-0.7-0.1c-0.1,0-0.2,0-0.3-0.1
		c-0.1-0.1-0.2-0.1-0.3-0.2l-0.5-0.5l-0.1-0.2l-0.3,0.2c-0.2,0.2-0.4,0.4-0.6,0.5l-0.6,0.2l-0.5,0.1c-0.6,0-1.1-0.2-1.5-0.5
		l-0.4-0.5c-0.1-0.1-0.1-0.2-0.2-0.2c-0.1-0.1-0.1-0.2-0.2-0.3c-0.1-0.1-0.1-0.3-0.2-0.5c-0.1-0.2-0.1-0.4-0.1-0.5l-0.1-1V359
		c0-0.3,0-0.5,0.1-0.8c0-0.2,0.1-0.4,0.1-0.5c0-0.1,0.1-0.3,0.2-0.4l0.1-0.3h-0.4v-1.2h0.5l0-0.6c0-0.3,0.1-0.6,0.3-0.9
		c0.2-0.3,0.4-0.5,0.6-0.6l0.2-0.1l0.4-0.1l0.5-0.1h0.5c0.3,0,0.5,0,0.7,0.1c0.2,0.1,0.4,0.1,0.6,0.3c0.1,0.1,0.3,0.2,0.5,0.5
		c0.2,0.2,0.3,0.6,0.4,1.1l0.1,1.6h-2.9c-0.3,0.1-0.5,0.2-0.6,0.4c-0.1,0.2-0.3,0.4-0.4,0.7l-0.1,0.7l-0.1,0.8v0.2l0.1,0.6l0.2,0.8
		c0.1,0.3,0.3,0.5,0.4,0.6c0.1,0.1,0.2,0.1,0.3,0.1c0.1,0,0.2,0,0.4,0c0.1,0,0.3,0,0.5-0.1c0.2-0.1,0.4-0.2,0.6-0.5
		c0.2-0.2,0.3-0.5,0.3-1.1v-2.1h1.3l0,0.7v0.5v0.8l0.1,0.5c0.1,0.3,0.2,0.7,0.4,0.9c0.1,0.1,0.2,0.1,0.4,0.2
		c0.2,0.1,0.4,0.1,0.6,0.1c0.2,0,0.4-0.1,0.7-0.2c0.2-0.1,0.5-0.4,0.7-0.9c0.2-0.4,0.3-0.9,0.4-1.3l0.1-0.9l0-0.5l0-1.1
		c0-0.5,0-0.8-0.1-1c0-0.2-0.1-0.3-0.1-0.5c0-0.2-0.1-0.4-0.2-0.6c-0.1-0.4-0.4-0.8-0.7-1c-0.4-0.2-1-0.4-1.9-0.4h-2.9h-0.7
		c-0.2,0-0.4,0-0.6-0.1c-0.2-0.1-0.4-0.2-0.6-0.5c-0.1-0.2-0.2-0.4-0.2-0.8c0-0.5,0.2-1,0.6-1.3c0.4-0.3,0.9-0.6,1.6-0.7l1.1-0.1
		l1.3-0.1l1.1,0.1c0.4,0,0.6,0.1,0.6,0.1c0.2,0.1,0.3,0.1,0.4,0.1c0.6,0.1,1.1,0.3,1.4,0.6c0.3,0.2,0.6,0.6,0.7,1
		c0.1,0.2,0.1,0.4,0.2,0.6c0.1,0.3,0.1,0.6,0.1,1h-1.4l0-0.6c0-0.2-0.1-0.4-0.2-0.5c-0.1-0.2-0.2-0.3-0.3-0.4
		c-0.1-0.1-0.3-0.2-0.6-0.2c-0.2-0.1-0.5-0.1-0.6-0.2c-0.2,0-0.4-0.1-0.7-0.1c-0.3,0-0.6-0.1-0.9-0.1l-0.7,0l-0.8,0l-0.7,0.1
		c-0.2,0-0.4,0.1-0.5,0.2c-0.1,0.1-0.2,0.2-0.3,0.3c0,0-0.1,0.1-0.1,0.3c0,0.1,0,0.1,0.1,0.2c0.1,0,0.2,0.1,0.5,0.1h2.1
		c1,0,1.8,0,2.4,0.1c0.6,0.1,1.1,0.3,1.4,0.5c0.3,0.2,0.5,0.6,0.8,1c0.1,0.2,0.2,0.4,0.3,0.7c0.1,0.3,0.2,0.6,0.2,1l0.1,1
		L258.7,357.8L258.7,357.8z M252.8,355.8v-0.2v-0.2c0-0.2-0.1-0.4-0.2-0.6c-0.1-0.2-0.4-0.3-0.9-0.3c-0.3,0-0.6,0.1-0.7,0.2
		c-0.2,0.1-0.3,0.3-0.4,0.5v0.6H252.8L252.8,355.8z M270.7,358.8c0,0.5-0.1,0.9-0.2,1.4c-0.1,0.4-0.3,0.9-0.6,1.5
		c-0.3,0.5-0.8,0.9-1.5,1.2c-0.4,0.1-0.7,0.2-1.1,0.2c-0.4,0.1-0.9,0.1-1.5,0.1v-1.2h0.8l0.6-0.1c0.4-0.1,0.7-0.2,0.9-0.3
		c0.1,0,0.1-0.1,0.2-0.2c0.1-0.1,0.2-0.2,0.4-0.4c0.2-0.2,0.3-0.4,0.4-0.7l0.2-1l0.1-1.1v-0.5l-0.1-0.5l-0.1-0.3l-0.2-0.5
		c0-0.2-0.1-0.3-0.1-0.4c0-0.1-0.1-0.2-0.3-0.5c-0.2-0.2-0.4-0.4-0.6-0.6c-0.3-0.1-0.5-0.3-0.7-0.3c-0.2-0.1-0.4-0.1-0.5-0.1
		c-0.1,0-0.3,0-0.4,0c-0.3,0-0.6,0.1-0.8,0.2l-0.7,0.3l-0.7,0.4h0.2c0.2,0,0.4,0,0.5,0c0.3,0,0.5,0.1,0.9,0.2
		c0.4,0.1,0.6,0.4,0.9,0.7c0.2,0.3,0.4,0.7,0.6,1.2c0.2,0.5,0.2,1,0.2,1.6v0.5c0,0.3,0,0.6-0.1,0.9c0,0.4-0.3,0.9-0.7,1.5
		c-0.5,0.5-1,0.9-1.6,1.1c-0.6,0.2-1.2,0.3-1.7,0.3c-0.6,0-1.1-0.1-1.5-0.2c-0.4-0.1-0.8-0.3-1.1-0.6c-0.3-0.3-0.6-0.6-0.8-1.1
		c-0.2-0.5-0.3-1-0.3-1.6c0-0.3,0-0.5,0-0.6h-0.3v-1.3l3.6-3l0-0.2c0,0-0.1-0.1-0.2-0.2l-0.3-0.2l-0.5,0c-0.2,0-0.4,0.1-0.6,0.2
		c-0.2,0.2-0.3,0.4-0.3,0.9v1.1h-1.3v-1.3c0-0.6,0.2-1.2,0.5-1.6c0.4-0.4,0.9-0.6,1.7-0.6c0.5,0,0.9,0.1,1.2,0.2
		c0.2,0.1,0.4,0.3,0.7,0.6l0.6-0.4l0.3-0.2l0.6-0.1l0.7-0.1h0.4h0.7l0.5,0.1c0.1,0,0.3,0,0.4,0.1c0.1,0,0.3,0.1,0.6,0.3
		c0.5,0.2,0.9,0.5,1.2,1c0.1,0.1,0.1,0.1,0.2,0.3c0.1,0.1,0.1,0.2,0.2,0.3l0.3,0.7l0.2,1.4L270.7,358.8L270.7,358.8z M266.2,358.8
		v-0.5c0-0.2,0-0.4-0.1-0.6c-0.1-0.3-0.2-0.6-0.4-0.8c-0.1-0.2-0.3-0.3-0.6-0.4c-0.2-0.1-0.4-0.2-0.5-0.2c-0.1,0-0.2,0-0.3,0l-1.3,0
		l-2.2,1.7l0.3,0c-0.1,0.2-0.2,0.5-0.2,0.7c0,0.2-0.1,0.5-0.1,0.7c0,0.6,0.1,1,0.2,1.4c0.2,0.4,0.5,0.6,0.8,0.8
		c0.4,0.2,0.8,0.3,1.2,0.3h0.4c0.5,0,1-0.1,1.3-0.3c0.2-0.1,0.3-0.2,0.5-0.3c0.1-0.1,0.3-0.2,0.3-0.4c0.2-0.3,0.3-0.6,0.4-0.9
		l0.1-0.6L266.2,358.8L266.2,358.8z M275.4,357.8c0,1.2-0.1,2.1-0.4,2.9c-0.1,0.4-0.3,0.7-0.4,1c-0.2,0.3-0.3,0.5-0.6,0.7
		c-0.2,0.2-0.4,0.3-0.6,0.4c-0.2,0.1-0.4,0.2-0.6,0.2c-0.2,0-0.4,0.1-0.7,0.1c-0.3,0-0.6,0-1,0v-1.2l0.7,0c0.4,0,0.7-0.1,0.9-0.2
		c0.2-0.1,0.4-0.3,0.7-0.5c0.2-0.2,0.3-0.6,0.5-1.3c0.1-0.3,0.1-0.5,0.2-0.8c0-0.3,0.1-0.7,0.1-1.2c0-0.7-0.1-1.3-0.2-1.8
		c-0.1-0.5-0.3-0.9-0.6-1.2c-0.1-0.1-0.3-0.3-0.4-0.3c-0.1-0.1-0.3-0.1-0.4-0.2c-0.2-0.1-0.5-0.1-0.9-0.1h-0.5V353l1,0l0.5,0.1
		l0.7,0.2c0.6,0.1,1,0.6,1.4,1.5C275.2,355.8,275.4,356.8,275.4,357.8L275.4,357.8z"/>
	<path id="XMLID_145_" class="st1" d="M149.8,289.9c-1.1-1.1-1-1.2,4-1.9c1.8-0.2,1.8-0.3,1.1-1c-0.4-0.4-3.1-2.5-6.1-4.6
		c-11.4-8.1-17.1-14.2-21.2-23.1c-3.5-7.5-4.7-13.3-4.4-22.7c0.2-4.9,0.4-7.2,1.1-10.3c2.5-10.5,7.6-19.3,16.3-28
		c5.4-5.4,10-9,22.7-18.1c11.3-8,14.2-10.3,17.7-13.6c2.3-2.2,5.7-6.2,7-8.2l0.6-1l-2.2-1.3c-2.3-1.4-4.8-3.9-5.8-5.7
		c-0.3-0.6-0.8-2.1-1-3.4c-1.7-8.5,4-16.2,11.9-16.2c3.4,0,6.1,1.3,9.2,4.3c4.7,4.7,6.3,10.4,4.7,17.1c-1.8,8-7.1,14.6-23.2,29.4
		c-18.2,16.6-25.6,27.8-27.7,42.1c-1.8,11.9,0.7,25.6,7,38.1c2.5,5.1,3.9,6.9,9.9,13c6.3,6.4,9.9,9.5,13.3,11.6l2.2,1.3l63,0l63,0
		l2.3-1.4c5.1-3,16.2-14.2,20.4-20.5c7.4-11,11.6-29.6,9.8-42.8c-0.9-6.8-4.5-15.2-9-21.5c-5-6.9-9-11.1-24.8-25.4
		c-13.4-12.2-18-19.4-18-28.2c0-7.7,4.4-14.1,11.3-16.6c8.7-3.1,17.2,5.6,15.2,15.6c-0.3,1.3-0.7,2.8-1,3.4
		c-0.9,1.8-3.4,4.3-5.7,5.7l-2.2,1.3l0.7,1.2c1.2,2.1,5.3,6.6,8.2,9.2c3.8,3.4,6.2,5.2,16.7,12.6c11.5,8.2,17.5,13,22.6,18.1
		c9.9,9.9,15.3,20.1,17,32c0.6,4,0.5,12.3-0.2,16.2c-2.3,13.6-9.5,24.2-23.6,34.8c-7.8,5.8-8.5,6.5-6.4,6.5c1.8,0,4.5,0.5,4.5,0.8
		c0,0.2-0.3,0.6-0.6,0.9c-0.5,0.5-10.1,0.6-100.2,0.6C160,290.5,150.4,290.5,149.8,289.9L149.8,289.9z M180.3,288l1-0.2l-1.2-1.2
		c-0.7-0.6-2.7-2.3-4.5-3.6c-1.8-1.3-3.8-2.9-4.5-3.5c-3.6-3.2-9.7-11.8-12.6-17.8c-2.2-4.7-5.2-13.6-6.2-18.8
		c-4-20,1.8-36.1,19.8-54.3c1.9-2,7.4-7.1,12.1-11.4c12.2-11.1,15.5-14.9,18.1-20.5c1.2-2.5,1.2-2.7,1.2-7.8c0-5,0-5.3-1-7.3
		c-3.4-6.7-10.4-9.8-15.8-7.1c-4.3,2.2-6.1,8.1-4.1,13.3c0.9,2.5,4,5.9,6.8,7.7c1.1,0.7,2,1.3,2.1,1.3c0.1,0.1-0.4,1.2-1.1,2.6
		c-2.1,4.3-8.5,10.2-22.5,21c-13.4,10.3-23.8,19.8-29,26.6c-5.8,7.6-9.4,14.9-11,22.5c-1.1,5.4-1.2,13.5,0,18.9
		c2.7,13,9,21.9,21.6,30.9c8.3,5.9,11.9,8,14.7,8.7C165.3,288.3,178.8,288.3,180.3,288L180.3,288L180.3,288z M334.6,287.5
		c7.2-1,9.4-2.2,20.3-11.3c9.1-7.6,14.3-15.5,16.9-25.5c1.2-4.5,1.6-13.5,0.9-19.3c-1.3-11.3-6.4-20.6-17.3-31.6
		c-5.3-5.3-10.1-9.4-21.3-17.9c-13.6-10.4-15.7-12.1-19.4-15.8c-2.6-2.6-3.7-4-4.8-6.3c-0.8-1.6-1.4-2.9-1.3-3
		c0.1-0.1,1.3-0.8,2.8-1.6c5-2.9,7.5-6.9,7.1-11.5c-0.3-4.1-3.9-8.9-7.4-9.8c-4.7-1.3-11.1,2.5-13.7,8c-1,2.1-1.1,2.6-1.1,6.7
		c0,3.6,0.2,4.9,0.8,6.9c1.8,5.3,6.8,11,19.4,22.5c19,17.2,26.2,26.4,30.2,38.4c2.8,8.6,2.8,19.3,0,30.2c-2.1,8.2-5.5,16.7-8.5,21.2
		c-1.7,2.5-10.1,12-11.2,12.7c-0.3,0.2-2.2,1.9-4.4,3.9l-3.9,3.6h6.4C328.8,287.9,333,287.7,334.6,287.5L334.6,287.5z"/>
	<path id="XMLID_146_" class="st1" d="M152.9,295.8c-0.1-0.2-0.3-0.8-0.4-1.5l-0.3-1.2h98.5h98.5l-0.2,1.2c-0.1,0.7-0.4,1.3-0.6,1.5
		C347.8,296.2,153.1,296.2,152.9,295.8z"/>
	<path id="XMLID_147_" class="st1" d="M231.8,273c0.2-0.7,1-1.5,6-6.2c2.5-2.3,4-4.7,4.4-7.2c0.2-1.4,0-1.9-1.7-4.8
		c-1-1.8-2.1-4.2-2.3-5.3c-0.6-2.6-0.2-7.9,0.6-9.2l0.6-0.9l-1,0.5c-2.2,1.2-3.5,3.5-3.5,6.7c0,2.7,0.7,4.5,3.3,8.4
		c1.2,1.8,2.3,3.4,2.3,3.6c0,0.1-0.5,0.1-1.2,0c-5.2-1-12.2-6.9-15-12.6c-1.3-2.7-1.4-2.9-1.2-5.9c0.2-3.7,0.9-4.9,3.9-6.9l1.8-1.2
		l2.9,0.9c1.6,0.5,3.1,0.9,3.2,0.9c0.2,0,0.4-1.1,0.4-2.4c0-1.3,0.1-2.4,0.2-2.4c0.1,0,1.3,0.6,2.7,1.3c1.3,0.7,2.6,1.2,2.9,1.1
		c0.3-0.1,0.5-0.8,0.5-2.1v-1.9h2.8h2.8v-2v-2l1.2,0c0.7,0,2,0.2,3,0.3l1.8,0.3V222v-2.2l1.8-0.1c1.4-0.1,1.8-0.3,2.1-1
		c0.7-1.5,1.6-1,2.9,1.6l1.2,2.4l1.5-0.6c2.2-0.9,5-2.6,10.5-6.6c8.7-6.3,12.6-8,18.9-8.3c4.1-0.2,4.8-0.1,9.2,1.7
		c1.3,0.5,2.4,0.8,2.5,0.7c0.4-0.4-0.8-4.4-1.7-5.7c-2-2.7-2.8-2.9-11.9-2.7c-17.6,0.4-20,0.2-21.8-1.9c-0.7-0.8-0.9-1.5-0.9-2.8
		c0-2.4,1.3-3.6,4.7-4.4c2.8-0.6,12.2-0.8,20.8-0.3c3.8,0.2,4.1,0.3,4.1,1c0,0.7-0.4,0.8-2.9,1.1c-2,0.2-2.9,0.5-2.9,0.8
		c0,0.7-0.6,0.6-2.1-0.3c-1.1-0.7-1.3-0.7-1.5-0.2c-0.2,0.4-0.6,0.5-1.8,0.2c-1-0.2-1.7-0.2-2.1,0.1c-0.5,0.3-0.9,0.3-1.6,0
		c-1.3-0.6-1.7-0.6-1.7,0.1c0,0.7-0.2,0.7-3-0.2c-1.3-0.4-2.7-0.7-3.2-0.7c-1.2,0-3.2,0.8-3.8,1.6c-0.5,0.5-0.4,0.8,0.8,1.8
		c1.4,1.4,3.5,2.1,5.8,2.1c0.8,0,4.7-0.4,8.7-0.8c8.6-0.9,12.8-0.8,15.1,0.3c3,1.5,4.9,5.3,5.2,10.1c0.2,2.6,0.3,3,2.2,5.8
		c2.7,4.1,3.5,5.8,4.2,8.9c1,4.6,0.1,9.5-3.2,18c-2.6,6.7-2.9,10.3-1.1,12.8c0.4,0.5,0.2,0.9-1,2.3c-2.1,2.4-2.8,3.9-2.8,5.7
		c0,1.9,0.6,2.6,2.8,3.1c0.9,0.2,1.7,0.5,1.8,0.7c0.1,0.2-0.5,1.1-1.4,2.1c-0.9,1-1.5,2-1.5,2.3c0.1,0.3-0.2,0.3-1.2-0.2l-1.3-0.6
		l-1.2,1.2c-1.3,1.3-2.1,1.5-2.1,0.6c0-0.5-0.4-0.6-2.8-0.3c-1.5,0.1-2.8,0.2-2.8,0c0-0.5,0.9-1.9,2.4-3.9c2.8-3.7,3.3-5,3-8.4
		c-0.1-1.6-0.8-5.1-1.5-7.6c-2.3-8.3-2.5-9.5-2.2-13.8c0.4-6.5-0.8-9.3-4.2-10c-4.9-1.1-9.5,2.1-15.8,11
		c-5.7,8.1-10.1,12.1-18.5,16.8l-3.8,2.1l-1.3-1c-1.5-1.1-2.5-3.3-2.5-5.4c0-0.8,0.6-3.1,1.3-5c0.7-2,1.3-3.9,1.3-4.4
		c0-1.1-0.8-0.7-1.2,0.5c-0.1,0.5-0.9,2.2-1.8,3.7c-2.2,4-2.5,5.6-1.6,8.1c0.4,1.1,0.8,2.1,0.8,2.3c0,0.1-0.8,1.2-1.8,2.4
		c-2.4,2.9-3,4.2-3,6.3c0,1.6,0.1,1.7,1.3,2.3c1,0.5,1.2,0.7,0.8,1c-1,0.8-3.6,4.4-3.4,4.7c0.1,0.2-0.4,0.3-1.1,0.3
		c-0.7,0-2.1,0.1-3,0.2c-1.6,0.2-1.7,0.2-1.7-0.6c0-0.9-0.2-1-2.1-0.3C232.1,273.8,231.6,273.8,231.8,273L231.8,273z"/>
	<path id="XMLID_148_" class="st1" d="M227.1,212.5c-2.9-0.8-6-2.1-6-2.5c0-0.2,2.3-0.3,5-0.3c3.5,0,5.4-0.2,6.3-0.5
		c2.4-1,2.7-2.9,0.8-6.7c-0.7-1.4-1.3-2.8-1.4-3c-0.1-0.2,0.3-0.5,0.9-0.6c0.7-0.1,1.3-0.6,1.7-1.3c0.5-1,0.9-1.1,2.3-1.2
		c1.5-0.1,1.9,0.1,3,1c0.8,0.7,2,1.3,3,1.5l1.7,0.3l-0.3-1.1c-0.7-2.5-2.8-3.8-6.9-4.2c-1.4-0.1-2.9-0.5-3.3-0.8
		c-1.1-0.8-1.3-0.6-1.3,0.9c0,0.8-0.1,1.8-0.2,2.3c-0.2,0.8-0.4,0.9-2.4,0.7l-2.2-0.2l0.5,1.1c0.8,1.5,0.7,1.6-1.1,1.3
		c-3.9-0.5-8.4-3.5-8.4-5.5c0-1.9,0.3-2.2,2.3-2.2c2.1,0,3,0.4,4.8,2c1.3,1.3,3.2,2.1,4.7,2.1c0.9,0,0.9,0-0.5-2.8
		c-0.8-1.5-1.3-2.9-1.2-3c0.1-0.1,1.2-0.4,2.4-0.8c2.3-0.6,6-0.7,9.8-0.3c1.9,0.2,2.3,0.4,2.3,0.9c0,0.6-0.3,0.7-1.5,0.7
		c-1.3,0-1.5,0.1-1.5,0.9c0,0.7,0.4,1,2.1,1.7c2.9,1.2,3,1.3,3.1,3.3l0.1,1.7l5.1,1.9c3.9,1.4,5.1,2,5.1,2.5c0,0.5-0.3,0.7-1.5,0.7
		h-1.5l0.6,0.9c0.7,1.1,0.6,1.1-1.9,0.4c-2.3-0.7-2.8-0.7-2.8,0c0,0.4,2.2,2.5,4.1,3.8c0.1,0.1,0,0.3-0.3,0.5
		c-0.3,0.3-1.1,0.1-2.9-0.7l-2.5-1.2l-2.7,2.1l-2.7,2.1l-0.3-2.5c-0.5-4-0.9-5.1-2.6-6.8c-2.5-2.5-3-1.7-0.8,1.3
		c1.9,2.7,1.8,5.5-0.3,7.3C235.5,212.5,230.8,213.5,227.1,212.5L227.1,212.5z"/>
	<path id="XMLID_149_" class="st1" d="M248,198c0-0.1,0.2-0.8,0.5-1.5c0.5-1.1,0.8-1.4,2.9-2l2.4-0.7l-2.2-1.5l-2.2-1.5l1.6-0.1
		c2.2-0.2,5.4,0.9,7,2.2l1.3,1.2l-3.4,1.8c-2.6,1.4-3.9,1.9-5.6,2C248.9,198.2,248,198.1,248,198L248,198z"/>
	<path id="XMLID_150_" class="st1" d="M200.4,211c0.2-12.4,0.4-14.6,1.9-20.6c1-3.9,3.7-8.9,4.5-8.1c0.1,0.1-0.8,6.1-1.9,13.4
		c-1.3,8.4-2,13.8-1.8,14.7c0.7,5.2,1.2,9.6,1,10.5c-0.2,1-1.2,1.8-2.8,2.2l-1.1,0.3L200.4,211L200.4,211z"/>
	<path id="XMLID_151_" class="st1" d="M218,250.4c-0.7-3.1-2.2-5.4-7.5-11.2l-3.1-3.4v-4.3c0-3.5,0.1-4.3,0.5-4.3
		c0.8,0,1.9,1.3,3.6,4.2c2.1,3.7,4.8,5.5,7.9,5.5c0.9,0,0.9,0.1,1.1,3.6c0.2,3.2,0.4,4,1.6,6.5c0.8,1.6,1.3,2.9,1.2,3
		c-0.3,0.2-4.3,1.4-4.7,1.4C218.4,251.4,218.1,251,218,250.4L218,250.4z"/>
	<path id="XMLID_152_" class="st1" d="M199.4,235.9c-0.4-0.4-0.3-1.9,0.1-2.7c0.3-0.5,0.2-1.2-0.2-2.3c-0.3-0.9-0.4-1.7-0.3-1.8
		c0.2-0.1,1.3-0.5,2.6-0.8l2.3-0.6v0.9c0,0.8-0.2,0.9-1.3,0.9c-0.9,0-1.3,0.2-1.3,0.6c0,0.4,0.5,0.6,2,0.6c1.8,0,2,0.1,2,0.7
		c0,0.5-0.5,1-1.6,1.5l-1.6,0.7l1.2,0.3c0.9,0.2,1.2,0.5,1.2,1.1c0,0.5-0.3,0.9-0.6,1.1C203.4,236.2,199.7,236.2,199.4,235.9
		L199.4,235.9z"/>
	<path id="XMLID_153_" class="st1" d="M191.6,232c-0.4-0.5-0.6-1.6-0.6-2.9c0-3.4,1.9-5.2,5.7-5.2c3.8,0,3.4,1,3.6-10.3
		c0.2-14.7,0.7-19.7,2.9-25.8c1.3-3.8,4.3-7.4,3.8-4.6c-0.1,0.6-0.9,5.9-1.8,11.8c-1.7,11.6-1.9,15.5-1.1,21.8
		c0.4,3.6,0.4,4-0.2,4.8c-0.4,0.5-1.3,1.1-2,1.4c-1.2,0.4-0.9,0.5,2.7,0.5c3.9,0,4,0,4,0.9c0,0.8-0.2,0.9-6.1,1.6
		c-5.1,0.6-6.4,0.9-7.8,1.8c-1.7,1-1.7,1-1.7,3C192.8,232.9,192.5,233.3,191.6,232L191.6,232z"/>
	<path id="XMLID_154_" class="st1" d="M277.2,268.5c0.4-0.4,1.6-1.4,2.8-2.2c2.5-1.7,3.5-2.8,4-4.4c1-3,0.3-6.1-2.7-12.3
		c-1.7-3.5-1.7-3.5-1.7-7.4c0-3.9,0-4,1.2-5.6c2.6-3.6,6.5-6.7,8.4-6.7c1.5,0,3.5,0.8,4,1.6c0.8,1.3,1.1,3.2,0.5,3.2
		c-0.9,0-3,2.3-4,4.5c-0.9,1.8-1,2.5-1,6.3c0,4.5,0,4.7,2.4,8.8l0.9,1.5l-1.7,2.1c-2.1,2.5-2.2,3.6-0.6,5.8l1.1,1.6l-1.5,1.7
		c-0.8,0.9-1.9,1.8-2.4,2c-1.4,0.4-4.7,0.4-4.9,0c-0.1-0.2-0.8-0.2-1.8,0c-0.9,0.2-2.2,0.3-2.8,0.3
		C276.5,269.3,276.5,269.3,277.2,268.5L277.2,268.5z"/>
	<path id="XMLID_155_" class="st1" d="M199.7,245.1c-0.1-0.2,0.1-1,0.5-1.9c0.9-2.1,0.7-2.7-1-2.5c-1.2,0.2-1.3,0.2-1-0.8
		c0.1-0.6,0.4-1.1,0.7-1.3c0.6-0.4,3.6-0.3,5.2,0.1c1.1,0.3,1.4,0.6,1.4,1.3c0,0.8-0.2,0.9-1.5,0.9h-1.5v2.2v2.2h-1.3
		C200.5,245.5,199.9,245.3,199.7,245.1L199.7,245.1z"/>
	<path id="XMLID_156_" class="st1" d="M226.9,219.5c0.1-0.8,0.3-1.7,0.4-2c0.2-0.6,2.7-2.4,3-2.1c0.1,0.1,0.1,0.9-0.1,1.8
		c-0.3,1.7-1.2,3-2.8,3.4C226.7,220.9,226.6,220.9,226.9,219.5L226.9,219.5z"/>
	<path id="XMLID_157_" class="st1" d="M232.4,219.4c0-2.2,0.1-2.8,0.7-3.4c0.3-0.4,0.8-0.6,2.1-0.9l0.2-0.1v1.2
		c0,1.8-0.2,2.4-0.9,3.2c-0.4,0.4-1.8,1.4-2,1.4C232.5,220.7,232.4,220.1,232.4,219.4z"/>
	<path id="XMLID_158_" class="st1" d="M238,218.3c-0.1-0.2-0.3-0.4-0.4-0.4c-0.2,0-0.2-0.1-0.1-1.2c0.1-1.3,0.2-1.8,0.7-2.5
		c0.3-0.4,1.4-1.4,1.5-1.4c0,0,0.2,0.2,0.3,0.4s0.3,0.4,0.4,0.4c0.1,0,0.1,0.1,0.1,0.9c0,1-0.2,1.9-0.5,2.4
		c-0.2,0.4-0.9,1.1-1.5,1.5l-0.3,0.2L238,218.3L238,218.3z"/>
	<path id="XMLID_159_" class="st1" d="M243.8,216.3c-1.3-0.4-1.3-0.4-1.4-2.6l0-1.6l0.6,0.1c0.8,0.2,1.3,0.4,1.5,0.8
		c0.1,0.2,0.1,0.6,0.2,1.9c0,0.9,0,1.6,0,1.6C244.6,216.5,244.2,216.4,243.8,216.3z"/>
	<path id="XMLID_160_" class="st1" d="M247.5,213.9c-0.9-0.6-0.9-0.4-0.8-1.9c0-0.7,0.1-1.3,0.1-1.3c0,0,0.9,0.5,1.3,0.8
		c0.2,0.1,0.2,0.2,0.2,0.5c0,0.7-0.1,2.2-0.2,2.2C248.1,214.3,247.8,214.1,247.5,213.9L247.5,213.9z"/>
	<path id="XMLID_161_" class="st1" d="M248.9,209.7c0-0.6,0-1.1,0.1-1.1c0.1,0,1.4,1.9,1.4,2c0,0-0.3,0.1-0.7,0.1h-0.8V209.7
		L248.9,209.7z"/>
	<path id="XMLID_162_" class="st1" d="M253.8,216.6c-0.9-0.6-1.5-1.2-1.7-1.8c-0.2-0.4-0.2-0.6-0.2-1.4v-1l0.3-0.5
		c0.2-0.3,0.3-0.5,0.4-0.5s0.4,0.2,0.7,0.5c1.3,0.8,1.4,1.1,1.4,3.6c0,0.9,0,1.7-0.1,1.7C254.6,217.2,254.2,216.9,253.8,216.6
		L253.8,216.6z"/>
	<path id="XMLID_163_" class="st1" d="M257,212c-1.7-0.5-2.3-1.5-2.4-3.6c0-1.1,0.1-1.4,0.5-1.6c0.3-0.1,1.6-0.5,1.7-0.4
		c0,0,0.4,1.4,0.5,1.8c0.1,0.3,0.1,1.1,0.2,2.2C257.6,212.4,257.6,212.2,257,212L257,212z"/>
	<path id="XMLID_164_" class="st1" d="M249.3,219.3c-0.6-0.8-1.1-1.4-1.1-1.5c0,0,0.1-0.3,0.2-0.5c0.1-0.2,0.3-0.6,0.3-0.8
		c0.1-0.3,0.2-0.5,0.3-0.5c0.2-0.1,1.9-0.4,2-0.3c0,0-0.1,1.1-0.3,2.4c-0.2,1.3-0.3,2.4-0.3,2.5s0,0.1-0.1,0.1
		C250.4,220.7,249.9,220.1,249.3,219.3L249.3,219.3z"/>
	<path id="XMLID_165_" class="st1" d="M243.8,224.6c-0.1-0.3-0.2-0.7-0.4-1c-0.2-0.4-0.2-0.7-0.2-1.4c0-0.7,0-0.9,0.4-1.9
		c0.2-0.7,0.4-1,0.5-1c0.2,0,1.3,0.3,1.6,0.4c0.3,0.2,0.5,0.5,0.5,1.1c0,1.2-0.6,2.5-1.9,4l-0.3,0.3L243.8,224.6L243.8,224.6z"/>
	<path id="XMLID_166_" class="st1" d="M239,226.8c-0.8-0.4-0.8-0.5-0.8-2.8l0-1.8l0.5-0.2c0.3-0.1,0.8-0.3,1.1-0.4l0.6-0.2l0.3,0.4
		c0.1,0.2,0.3,0.4,0.4,0.4c0.1,0,0.1,0.1,0.1,0.5c-0.1,1-0.1,1.1-0.6,2.3c-0.3,0.6-0.6,1.4-0.7,1.7c-0.1,0.3-0.2,0.5-0.2,0.5
		C239.6,227.2,239.3,227,239,226.8L239,226.8z"/>
	<path id="XMLID_167_" class="st1" d="M232.5,227.1c0-2.2,0.1-2.5,0.4-3c0.3-0.4,1.1-0.6,2.5-0.6c0.9,0,0.9-0.1,0.5,1
		c-0.3,0.9-0.6,1.6-1.2,2.3c-0.5,0.7-2.1,2.5-2.2,2.5C232.4,229.3,232.4,228.4,232.5,227.1L232.5,227.1z"/>
	<path id="XMLID_168_" class="st1" d="M225.2,231.1c-0.1-0.2-0.2-0.6-0.3-0.9c-0.3-0.9-0.4-1.5-0.3-2.7c0-1.1,0-1.2,0.3-1.7
		c0.6-1.1,2.2-2,4.3-2.2l0.5-0.1l0,1.8c0,2-0.1,2.6-0.4,3.3c-0.3,0.6-1.4,1.7-2.1,2.1c-0.6,0.3-1.6,0.7-1.8,0.7
		C225.4,231.4,225.3,231.3,225.2,231.1L225.2,231.1z"/>
	<path id="XMLID_169_" class="st1" d="M231.4,207.6l-1.7-0.3l-0.7,0.2c-0.4,0.1-0.7,0.2-0.7,0.2c-0.1-0.1-0.8-2.1-0.8-2.1
		c0,0,1.1,0,2.4,0c2,0,2.4,0.1,2.6,0.2c0.3,0.2,0.4,0.5,0.6,1.2c0.1,0.3,0.2,0.6,0.2,0.7C233.3,208,233.5,208,231.4,207.6
		L231.4,207.6z"/>
	<path id="XMLID_170_" class="st1" d="M230.2,203.5c-2.5-0.3-3.9-0.7-7.5-2.1c-1.3-0.5-2.7-1.1-3.1-1.2c-0.4-0.1-0.8-0.2-0.8-0.3
		c0,0,0.7-2.1,0.8-2.1c0,0,0.7,0.3,1.5,0.7c3.1,1.5,4.8,2.1,9.1,3.2l1.7,0.4l0,0.7l0,0.7l-0.7,0
		C230.8,203.6,230.4,203.6,230.2,203.5L230.2,203.5z"/>
	<path id="XMLID_171_" class="st1" d="M216.8,208.3c-2.1-0.2-4-0.4-4.1-0.4l-0.2,0v-0.8v-0.8l0.4,0c0.2,0,2.4,0.2,4.8,0.4
		c2.5,0.2,4.5,0.4,4.6,0.4c0.2,0,0.2,0-0.1,0.6c-0.2,0.3-0.4,0.6-0.5,0.6C221.4,208.7,220.7,208.7,216.8,208.3L216.8,208.3z"/>
	<path id="XMLID_172_" class="st1" d="M248.1,124.9c-3.5-1.3-4.9-3.3-5-7c0-2.8,0.6-3.8,3.3-5.7c2.2-1.5,4.4-1.6,6.9-0.4
		c2,1,3.2,2.7,3.5,4.9c0.5,3.5-0.7,6.4-3.3,7.6C252.1,125.1,249.4,125.4,248.1,124.9L248.1,124.9z"/>
	<path id="XMLID_173_" class="st1" d="M247,104.5c-2.7-2.1-3.1-2.6-3-3.4c0.2-1.6,2-6.5,2.9-7.9c0.9-1.4,3.4-4,3.7-3.7
		c0.5,0.5,3.2,5.3,3.9,6.9c0.5,1,0.9,2.9,1,4.1l0.2,2.2l-2.5,2.1c-1.4,1.2-2.6,2.1-2.7,2.1C250.3,106.9,248.8,105.8,247,104.5
		L247,104.5z"/>
	<path id="XMLID_174_" class="st1" d="M258.2,107c0-3.4,0.1-3.7,1-4.7c1.6-1.7,5-2.9,10-3.4l2.2-0.2l-0.2,1.8
		c-0.6,4.4-2.9,9.1-4.9,9.8c-0.5,0.2-2.5,0.4-4.5,0.4h-3.5V107L258.2,107z"/>
	<path id="XMLID_175_" class="st1" d="M264.4,121.2l-2.9-2.9l2.1-2.1c3.1-3,3.5-3.3,5.5-2.9c0.9,0.2,3.3,1.2,5.4,2.2
		c3.3,1.7,3.7,2,3.5,2.7c-0.3,1.1-2,2.8-3.5,3.6c-1.4,0.7-6.1,2.2-6.8,2.2C267.5,124.1,266,122.8,264.4,121.2L264.4,121.2z"/>
	<path id="XMLID_176_" class="st1" d="M264,137.6c-2.7-1.1-4.9-2.1-4.9-2.1c-0.1-0.1-0.3-1.7-0.5-3.6c-0.2-1.9-0.5-4.1-0.6-4.8
		l-0.2-1.3l2.5,0.2c6.4,0.6,5.9,0.4,7.2,2.9c0.7,1.2,1.4,3.1,1.7,4.2c0.7,2.5,0.7,6.6,0.1,6.5C269,139.7,266.6,138.7,264,137.6z"/>
	<path id="XMLID_177_" class="st1" d="M248.1,144.8c-1.6-1.8-3.2-4.7-3.5-6.5c-0.2-1.4-0.1-1.6,1.8-4c1.1-1.4,2.4-3.1,2.7-3.8
		c0.3-0.7,0.7-1.3,0.9-1.3s1.6,1.5,3.3,3.4l3,3.4l-0.6,1.9C253.6,145.2,250.8,147.7,248.1,144.8L248.1,144.8z"/>
	<path id="XMLID_178_" class="st1" d="M230,139.1c-0.1-0.3,0.8-3.2,2.2-6.5l2.4-5.9l2.4-0.2c1.3-0.1,3.1-0.3,3.9-0.5l1.5-0.2
		l-0.2,3.7c-0.1,2-0.3,4.2-0.3,4.8c0,1.1-0.1,1.2-5.5,3.3c-3,1.2-5.6,2.1-5.8,2.1C230.4,139.7,230.1,139.4,230,139.1L230,139.1z"/>
	<path id="XMLID_179_" class="st1" d="M228.7,123.7c-2.2-0.6-7-4.5-7-5.5c0-0.1,2.3-1.4,5-2.8l5-2.6l3,2.7c3.5,3.2,4.4,4.4,3.2,4.4
		c-0.3,0-1.3,0.9-2.3,2c-1.7,2-1.8,2-3.8,2C230.7,124,229.3,123.9,228.7,123.7L228.7,123.7z"/>
	<path id="XMLID_180_" class="st1" d="M232.3,110c-0.1-0.4-0.7-1.8-1.4-3.3c-1.1-2.5-1.8-6.8-1.2-8.2c0.2-0.4,1.3-0.2,5.9,1.4
		c3.1,1,5.7,1.9,5.8,1.9c0,0,0.2,2,0.3,4.4l0.3,4.4h-4.7C233,110.6,232.5,110.6,232.3,110L232.3,110z"/>
	<path id="XMLID_181_" class="st1" d="M240,99.2c-2.2-0.8-2.8-1.9-2.6-4.3c0.1-1.1,0.4-2.1,0.6-2.3c0.5-0.5,2.8,0.3,3.8,1.4
		c0.7,0.8,0.8,1.2,0.7,3c-0.1,1.1-0.3,2.2-0.5,2.4C241.8,99.6,240.9,99.5,240,99.2L240,99.2z"/>
	<path id="XMLID_182_" class="st1" d="M242.6,92c-1.7-0.9-1.7-0.9-1.2-1.8c0.3-0.6,0.8-0.8,1.9-0.8c0.8,0,1.8-0.2,2.2-0.4
		c0.7-0.4,0.7-0.3,0.5,0.7c-0.3,1.1-1.3,2.8-1.9,3C244,92.7,243.3,92.4,242.6,92z"/>
	<path id="XMLID_183_" class="st1" d="M254.4,91.4c-1-1.6-0.6-2,2-2c1.4,0,1.8,0.1,1.8,0.6c0,1-0.7,1.9-1.8,2.3
		C255.3,92.7,255.2,92.6,254.4,91.4L254.4,91.4z"/>
	<path id="XMLID_184_" class="st1" d="M264.5,95c0-1.1,0.2-1.9,0.4-1.9c1.2,0,4.1,2.4,4.1,3.4c0,0.2-1,0.3-2.2,0.3h-2.2V95z"/>
	<path id="XMLID_185_" class="st1" d="M277.1,114.6c-0.8-0.4-1.4-0.9-1.4-1c0-0.4,2.7-2.2,3-2c0.4,0.2,0.4,3.9,0,3.8
		C278.6,115.4,277.9,115.1,277.1,114.6L277.1,114.6z"/>
	<path id="XMLID_186_" class="st1" d="M273.9,104.3c-0.6-0.2-0.8-0.6-0.8-1.5c0-0.9,0.1-1.1,0.9-1.1c0.7,0,0.9,0.3,1.1,1.2
		C275.5,104.9,275.5,104.9,273.9,104.3z"/>
	<path id="XMLID_187_" class="st1" d="M271.6,134.7V133h1.6h1.6l-0.3,1.2c-0.2,0.7-0.3,1.2-0.3,1.3c0,0.1-2.3,0.9-2.5,0.9
		C271.7,136.3,271.6,135.6,271.6,134.7z"/>
	<path id="XMLID_188_" class="st1" d="M276.8,125c-0.6-0.7-1-1.4-1-1.5s0.7-0.5,1.6-0.9c0.9-0.4,1.6-0.8,1.6-0.7
		c0,0.2-1.1,4.4-1.2,4.4C277.9,126.3,277.4,125.7,276.8,125L276.8,125z"/>
	<polygon id="XMLID_189_" class="st1" points="264.6,141.8 264.6,141 265.7,141 266.8,141 266.8,141.8 266.8,142.5 265.7,142.5 
		264.6,142.5 	"/>
	<path id="XMLID_190_" class="st1" d="M254.3,146.3c0.8-1.4,1.5-1.9,2.3-1.6c0.3,0.1,0.4,0.3,0.7,0.8c0.4,0.8,0.5,0.7-1.5,1.1
		C253.7,147,253.8,147.1,254.3,146.3L254.3,146.3z"/>
	<path id="XMLID_191_" class="st1" d="M243.2,146.6c0-0.5,0.3-1.4,0.5-1.6c0.3-0.3,0.8-0.4,1.3-0.3c0.5,0.1,0.7,0.4,0.8,1.2
		c0.1,0.3,0.2,0.7,0.2,0.8c0,0.2-0.1,0.2-1.4,0.2C243.2,146.8,243.2,146.8,243.2,146.6L243.2,146.6z"/>
	<path id="XMLID_192_" class="st1" d="M234.3,142.9l-1.1-0.3l0-0.8l0-0.8h1.1h1.1v1.1c0,0.6,0,1.1,0,1.1
		C235.4,143.3,234.9,143.1,234.3,142.9L234.3,142.9z"/>
	<path id="XMLID_193_" class="st1" d="M226.5,135.2c-0.7-1-1.3-1.8-1.3-1.9c0,0,0.9-0.1,1.9-0.1c1.4,0,1.8,0,1.8,0.1
		c0,0.1-0.2,0.7-0.4,1.4c-0.2,0.7-0.4,1.5-0.5,1.8c-0.1,0.3-0.2,0.5-0.2,0.5C227.9,137,227.2,136.2,226.5,135.2z"/>
	<path id="XMLID_194_" class="st1" d="M221.9,126.6c-0.2-1-0.8-4-0.8-4.1c0,0,0.7,0.4,1.4,1c0.9,0.7,1.3,1.1,1.3,1.2
		c0,0.1-0.1,0.6-0.3,1.1l-0.3,0.9l-0.7,0C222,126.8,221.9,126.8,221.9,126.6L221.9,126.6z"/>
	<path id="XMLID_195_" class="st1" d="M220.9,115.1c0-0.1,0.2-0.9,0.4-1.8c0.2-0.9,0.3-1.6,0.3-1.6c0,0,2.5,2,2.5,2
		c0,0.1-3.1,1.6-3.2,1.6C220.9,115.4,220.9,115.3,220.9,115.1L220.9,115.1z"/>
	<path id="XMLID_196_" class="st1" d="M224.3,104.5c0-0.1,1.9-3.5,2-3.7c0,0,0.3,0.6,0.6,1.5c0.3,0.9,0.5,1.6,0.5,1.6
		c0,0-0.6,0.1-1.4,0.3c-0.7,0.1-1.4,0.3-1.5,0.3C224.4,104.6,224.3,104.6,224.3,104.5L224.3,104.5z"/>
	<path id="XMLID_197_" class="st1" d="M231.6,96.3l-0.4-0.7l1.5-0.9c2.4-1.4,2.7-1.6,2.7-1.4c0,0.1-0.2,0.9-0.4,1.8l-0.4,1.7h-0.6
		c-0.3,0-0.9,0-1.3,0.1l-0.7,0.1L231.6,96.3z"/>
	<path id="XMLID_198_" class="st1" d="M257.4,99.6c0-0.1-0.2-0.9-0.4-1.8l-0.3-1.7l0.6-0.8c1.2-1.8,2.5-2.6,4-2.7l0.5,0l0.3,0.8
		c1.1,3.4,0.3,5.3-2.8,6C258.1,99.7,257.5,99.7,257.4,99.6L257.4,99.6z"/>
	<path id="XMLID_199_" class="st1" d="M271.2,111.6c-1.4-0.4-1.7-0.6-1.7-0.7c0-0.1,0.6-1,1.2-2.1l1.2-2l1.5,0
		c1.2,0,1.6,0.1,2.4,0.3c0.5,0.2,1,0.3,1.1,0.4c0.1,0.1-0.4,1.9-0.8,2.6c-0.4,0.8-1,1.3-1.7,1.5
		C273.5,111.9,272.2,111.9,271.2,111.6L271.2,111.6z"/>
	<path id="XMLID_200_" class="st1" d="M269.9,128.2c-0.7-1.4-1.1-2.2-1-2.2c0.1,0,1.1-0.2,2.2-0.4l2.1-0.3l1,0.7
		c1.4,1,1.8,1.8,1.8,3.7l0,0.7l-2.5,0l-2.5,0L269.9,128.2L269.9,128.2z"/>
	<path id="XMLID_201_" class="st1" d="M259.9,144.1c-1.3-0.7-2-1.2-2.2-1.7c-0.2-0.5-0.2-1.8,0.1-2.8c0.1-0.5,0.3-1.1,0.3-1.5
		c0-0.3,0.1-0.6,0.2-0.6c0.3,0,4.6,2.2,4.6,2.3c-0.1,0.4-1.7,4.8-1.7,4.8C261,144.7,260.5,144.4,259.9,144.1L259.9,144.1z"/>
	<path id="XMLID_202_" class="st1" d="M238.9,144.4c-0.1-0.6-0.7-4.8-0.6-4.8c0.1-0.1,4-0.7,4.1-0.6c0.2,0.1,1,2.8,0.9,2.9
		c-0.1,0.1-0.4,0.5-0.7,1c-0.9,1.3-1.1,1.5-2.4,1.7C239.1,144.7,238.9,144.7,238.9,144.4L238.9,144.4z"/>
	<path id="XMLID_203_" class="st1" d="M227.3,131.1c-0.7-0.1-2.8-0.7-3-0.9c-0.1-0.1,2.3-4.7,2.5-4.7c0.1,0,4.2,1.2,4.3,1.3
		c0.1,0.1-0.4,1.5-0.7,2.2c-0.6,1.3-1.3,2-2,2.1C228.2,131.1,227.7,131.1,227.3,131.1L227.3,131.1z"/>
	<path id="XMLID_204_" class="st1" d="M225.6,111.5c-0.8-0.4-2-1.5-2.3-2.1c-0.2-0.5-0.2-0.5,0-0.9c0.1-0.2,0.4-0.6,0.7-0.8
		c0.6-0.4,1.9-0.9,3-1l0.8-0.1l0.6,0.7c1.9,1.9,2.3,3.9,0.9,4.3c-0.2,0.1-1,0.1-1.7,0.1C226.4,111.8,226.3,111.8,225.6,111.5
		L225.6,111.5z"/>
	<path id="XMLID_205_" class="st1" d="M239.9,116.5c-2.1-0.7-3.1-1.7-3.7-3.5c-0.1-0.3-0.2-0.6-0.1-0.6c0.3,0,5.6,0.7,5.7,0.8
		c0,0-0.1,0.9-0.3,1.8C241.1,117,241.2,116.9,239.9,116.5L239.9,116.5z"/>
	<path id="XMLID_206_" class="st1" d="M244.6,110.3c0,0-0.2-0.6-0.4-1.2c-0.3-1.1-0.3-1.2-0.3-2.8l0-1.7l0.5,0.4
		c1.6,1.1,2.8,2.3,3,3c0.3,0.7-0.2,1.3-1.4,1.9C244.9,110.3,244.6,110.4,244.6,110.3L244.6,110.3z"/>
	<path id="XMLID_207_" class="st1" d="M254.1,109.3c-0.8-0.2-1.5-0.4-1.5-0.4c0-0.1,1.1-1.9,1.4-2.4c0.3-0.4,1.6-1.2,2-1.2
		c0.1,0,0.1,0.4,0.1,2.2v2.2l-0.2,0C255.7,109.6,254.9,109.5,254.1,109.3L254.1,109.3z"/>
	<path id="XMLID_208_" class="st1" d="M258.8,115.7c-0.1-0.2-0.2-0.9-0.4-1.5l-0.3-1l1.7-0.3c2.9-0.5,3.2-0.6,3.3-0.5
		c0,0,0,0.3-0.1,0.6c-0.6,1.8-1.2,2.3-3,2.8c-0.4,0.1-0.8,0.2-0.9,0.3C259,116.1,258.9,116.1,258.8,115.7z"/>
	<path id="XMLID_209_" class="st1" d="M260.7,123.7c-1.4-0.2-2.3-0.5-2.3-0.5c0-0.1,0.6-2.7,0.7-2.8c0,0,4.2,3.6,4.2,3.7
		C263.2,124.2,263.1,124.1,260.7,123.7z"/>
	<path id="XMLID_210_" class="st1" d="M254.1,129.9c-0.9-1.2-1.6-2.2-1.7-2.3c0-0.1,0.5-0.4,1.4-0.8c0.8-0.4,1.5-0.7,1.5-0.7
		c0,0,0.2,1.2,0.3,2.6c0.1,1.4,0.2,2.7,0.2,3c0,0.2,0,0.4,0,0.4C255.7,132,255,131.1,254.1,129.9L254.1,129.9z"/>
	<path id="XMLID_211_" class="st1" d="M244.3,133c0-0.3,0.1-1.8,0.2-3.4c0.1-1.6,0.2-2.9,0.2-3c0,0,3.9,1,3.9,1.1
		c0.1,0-4.2,5.8-4.3,5.8C244.3,133.5,244.2,133.3,244.3,133z"/>
	<path id="XMLID_212_" class="st1" d="M238.5,123.9c-0.6,0-1.1-0.1-1.2-0.1c-0.1,0,3.4-3.3,3.6-3.4c0,0,0.3,0.6,0.5,1.4l0.4,1.4
		l-0.3,0.2C240.9,123.9,240.3,124,238.5,123.9L238.5,123.9z"/>
	<path id="XMLID_213_" class="st1" d="M219.6,429.3v-1.2l26.6,0c14.7,0,26.7,0.1,26.8,0.1c0.1,0,0.3,0.4,0.5,0.7
		c0.4,0.7,0.4,0.7-0.5,1.1l-0.5,0.2l-26.5,0l-26.5,0V429.3L219.6,429.3z"/>
	<path id="XMLID_214_" class="st1" d="M223.2,424.6v-1.5h23.9c13.1,0,23.9,0,24,0c0,0,0,0.5,0,1c-0.1,1-0.3,1.4-0.8,1.7
		c-0.3,0.2-0.4,0.2-23.7,0.2l-23.3,0V424.6z"/>
	<polygon id="XMLID_215_" class="st1" points="208.2,419.7 208.2,418.9 246.8,418.9 285.4,418.9 285.4,419.7 285.4,420.4 
		246.8,420.4 208.2,420.4 	"/>
	<path id="XMLID_216_" class="st1" d="M213.2,414.7v-1.5l33.6,0c22.7,0,33.7,0,34,0.1c0.7,0.2,0.9,0.7,1,2.2l0,0.6h-34.3h-34.3
		V414.7L213.2,414.7z"/>
	<path id="XMLID_217_" class="st1" d="M192,411c-0.2,0-0.4-0.3-0.6-0.7c-0.2-0.3-0.3-0.6-0.3-0.7c0,0,25.1-0.1,55.7-0.1
		s55.7,0,55.7,0.1c0,0.2-0.6,1.2-0.8,1.3C301.5,411.1,192.4,411.1,192,411L192,411z"/>
	<polygon id="XMLID_218_" class="st1" points="194.6,405.4 194.6,403.9 246.8,403.9 299,403.9 299,405.4 299,406.8 246.8,406.8 
		194.6,406.8 	"/>
	<polygon id="XMLID_219_" class="st1" points="174.6,401.1 174.6,400.3 246.8,400.3 319,400.3 319,401.1 319,401.8 246.8,401.8 
		174.6,401.8 	"/>
	<polygon id="XMLID_220_" class="st1" points="176.8,396.4 176.8,395.3 247.1,395.3 317.5,395.3 317.5,396.4 317.5,397.5 
		247.1,397.5 176.8,397.5 176.8,396.4 	"/>
	<path id="XMLID_221_" class="st1" d="M155.6,388.1c-0.2-0.1-0.6-0.3-0.7-0.5c-0.4-0.4-1.1-2.7-1-2.8c0.1-0.1,42.4-0.1,94.1-0.1
		l94,0.1l-0.8,1.3c-0.4,0.7-1,1.5-1.4,1.7l-0.6,0.4l-91.6,0C197.2,388.3,155.9,388.2,155.6,388.1L155.6,388.1z"/>
	<polygon id="XMLID_222_" class="st1" points="154.5,391.8 154.5,390.9 247.1,390.9 339.7,390.9 339.7,391.8 339.7,392.6 
		247.1,392.6 154.5,392.6 154.5,391.8 	"/>
	<path id="XMLID_227_" class="st1" d="M128.8,360.8c0-0.1-0.6-1.8-1.3-3.8c-1.4-4.2-1.7-6-1.5-9.4c0.1-2.5,0.5-3.9,1.8-7.1
		c1.6-3.8,1.6-3.9,1.7-8.8c0.1-3.6,0.2-4.5,0.5-5.6c1.5-5,4.9-8.5,9.6-9.7c2.8-0.7,6.1-0.5,8,0.7c1,0.6,3.4,2.9,3.4,3.3
		c0,0.2-0.4,1.9-0.9,3.8c-0.5,1.9-0.9,3.6-0.9,3.7s0.1,0.3,0.3,0.4c0.3,0.2,1.4-0.3,6.3-2.5c3.3-1.5,6.1-2.7,6.2-2.8
		c0.1-0.1-0.2-0.4-0.7-0.7l-0.9-0.6l-3.8,1.5c-2.1,0.8-3.9,1.5-4,1.5c-0.1,0,0-0.4,0.4-0.9l0.7-0.9l0.1-2.1c0.1-1.9,0-2.2-0.3-2.5
		c-0.4-0.4-1-1.8-1.1-2.1c0-0.2,0.5-0.2,1.8-0.2c2.1,0,2-0.1,1.5,1.9c-0.2,0.7-0.3,1.4-0.3,1.4c0,0.3,1.1-0.1,3.4-1.2
		c2.6-1.2,3.6-1.5,6.2-1.5c2,0,10.2,0.5,10.3,0.6c0,0-0.2,2-0.6,4.3c-0.4,2.3-1,6.2-1.4,8.6c-0.8,4.8-0.9,5.5-1.6,6.9
		c-1.2,2.5-2.4,4-5.8,7.5c-1.2,1.2-2.4,2.6-2.7,3.1c-0.4,0.5-0.7,0.8-0.9,0.7c-0.6-0.2-11.2-2.5-11.4-2.5c-0.1,0-0.1,0.1,0,0.4
		c0.2,0.6,0.2,3.2-0.1,4.1c-0.3,1.1-1.1,2.1-2.7,3.5c-2.2,1.9-3,3.4-3.4,5.8l-0.1,0.8l-1.1-0.1l-1.1-0.1l-0.3-0.9
		c-0.6-1.6-0.4-2.4,2.2-8.1c0.5-1.2,0.9-2.2,0.8-2.2c-0.1,0-0.9,0.1-1.8,0.2c-2.1,0.3-4.2,1.4-5.8,2.8c-0.6,0.6-1.9,2-2.8,3.1
		c-2.4,3-3.6,4.4-4.7,5.1C129,361.1,128.9,361.2,128.8,360.8z M134.5,341.2c0.4-0.2,0.9-0.6,1.2-1c0.4-0.6,1-3.1,0.8-3.2
		c-0.1-0.1-0.6,0-1.1,0.1c-0.7,0.1-1.1,0.4-1.5,0.7c-0.5,0.5-0.5,0.6-0.6,2.2C133.3,341.8,133.3,341.8,134.5,341.2z M158.4,336.4
		c0.2-0.5,0.3-0.9,0.3-1c-0.1-0.1-0.8-0.3-1.7-0.6l-1.6-0.5l1.2,1.6c0.7,0.9,1.3,1.6,1.3,1.5C158,337.3,158.2,336.9,158.4,336.4z
		 M164.8,333.1c0.1-0.4,0.3-0.8,0.3-0.9c0.1-0.2-0.8-0.5-3.1-1.3c-1.8-0.6-3.3-1-3.3-1c-0.1,0.1,1.8,1.9,2.9,2.6
		c1,0.7,2.4,1.3,2.9,1.3C164.5,333.9,164.7,333.5,164.8,333.1z"/>
	<path id="XMLID_228_" class="st1" d="M140.6,397.3c-4.6-1.3-8.3-6.3-9.8-13.4c-0.3-1.6-0.4-2.2-0.4-6.1c0-2.4,0.1-6.1,0.1-8.2
		l0.1-3.8l4.9-2.4c2.7-1.3,4.9-2.4,4.9-2.3s0.2,0.5,0.3,1.1c0.4,1.5,0.4,5-0.1,7.6c-0.2,1.1-0.8,3.9-1.5,6.2c-1.3,5-1.6,6.5-1.6,8.5
		c0,3.5,1.3,5.4,4.9,7.2l1.4,0.7l1.3-0.8c0.7-0.4,1.3-0.8,1.3-0.9c0-0.1-0.4-0.2-0.9-0.4c-1.2-0.3-1.7-0.7-2.1-1.4
		c-0.5-0.9-0.4-1.8,0.2-2.4c1.3-1.2,4.8-1.6,6.5-0.7c0.7,0.4,0.9,0.6,1.6,2.1l0.8,1.7l-0.5,1.9c-0.3,1-0.7,2.3-1,2.9
		c-0.6,1.3-2,2.7-2.9,3C147.3,397.6,141.6,397.6,140.6,397.3L140.6,397.3z"/>
	<path id="XMLID_229_" class="st1" d="M130.4,363.1c0-0.1,2.1-2.5,4.7-5.3c4.1-4.6,4.7-5.2,5-5c0.4,0.2,0.4,0.3,0,1.8
		c-1.1,3.8-3,6.4-5.7,7.7C133,363,130.3,363.5,130.4,363.1L130.4,363.1z"/>
	<path id="XMLID_235_" class="st1" d="M350.1,359.9c-0.4-2.1-1.2-3.3-3.7-5.9c-2.7-2.8-3.1-3.4-3.2-5.5c0-0.8,0-1.7,0.1-2.1l0.2-0.6
		l-5.6,1.3c-3.1,0.7-5.7,1.3-5.9,1.3c-0.1,0-0.6-0.4-1-1c-0.4-0.5-1.8-2.2-3.1-3.6c-3.5-3.8-4.8-5.9-6-9.6c-0.8-2.4-1-3.8-1-7.9
		c0-4-0.2-5.2-1.2-7.7c-0.4-0.9-0.8-2.1-0.8-2.6l-0.1-0.9l0.5,0.1c0.3,0.1,4.6,0.8,9.7,1.7c5.1,0.9,9.3,1.7,9.5,1.7
		c0.3,0.1,0.3-0.1,0.3-1.7v-1.8h1.5h1.5l-0.1,0.5c-0.1,0.3-0.4,1.1-0.7,1.8c-0.8,1.9-0.8,3.3,0.1,5.1c0.4,0.7,0.6,1.4,0.6,1.4
		c0,0.1-1.6-0.5-3-1.1c-2-0.9-4.2-1.3-6.2-0.9c-0.7,0.1-0.5,0.2,5.3,3.1l6,3l0.3-0.4c1.2-1.4,1.3-2.3,0.4-4.2
		c-0.7-1.5-0.9-2.9-0.6-4.1c0.4-1.5,2.4-3,4.8-3.6c1.5-0.4,4.5-0.4,6,0c3.8,1,7.1,4,8.7,7.9c0.8,2.1,1.1,3.9,1.3,8.2
		c0.2,4.6,0.2,4.7,1.9,8.9c1.4,3.5,1.6,4.7,1.5,8.8c-0.1,2.9-0.1,3.4-0.6,5.2c-0.7,2.4-2.1,6.3-2.3,6.3c-0.5,0-2.7-2.2-5.2-5.2
		c-3.6-4.4-5.7-5.9-8.9-6.6c-0.7-0.1-1.4-0.3-1.4-0.3s-0.1,0.3,0,0.6c0.2,1.3,0.7,2.6,1.5,4.5c0.5,1.1,1,2.2,1,2.5
		c0.2,0.9,0.1,2.4-0.1,2.9c-0.2,0.5-1.5,1.4-1.8,1.4C350.4,361.1,350.2,360.5,350.1,359.9L350.1,359.9z M360.9,344.6v-2l-1.6-0.6
		c-0.9-0.3-1.6-0.6-1.6-0.6c0,0,0.1,0.9,0.4,2l0.4,2l1.2,0.7c0.7,0.4,1.2,0.7,1.2,0.7C360.9,346.6,360.9,345.7,360.9,344.6
		L360.9,344.6z M344.1,345.4c0-0.1-0.1-0.1-0.2-0.1c-0.1,0.1-0.2,0.1-0.2,0.2c0,0,0.1,0.1,0.2,0.1S344.1,345.5,344.1,345.4z
		 M337.9,335.2c0.7-1,1.3-1.8,1.3-1.8c0,0-3.4,1.3-3.5,1.4c-0.1,0.1,0.2,1.4,0.5,2.1C336.4,337.4,336.3,337.5,337.9,335.2
		L337.9,335.2z M333.8,330.8c0.6-0.7,0.9-1,0.7-1c-0.7,0.2-4.7,1.4-4.7,1.4c0,0,0.1,0.6,0.3,1.3l0.4,1.3l1.1-1
		C332.3,332.3,333.2,331.3,333.8,330.8z"/>
	<path id="XMLID_236_" class="st1" d="M361.6,363c-3.3-0.8-5.7-3.3-7.1-7.5c-0.5-1.5-0.7-2.4-0.6-2.4c0.7,0,3.1,2,5,4.4
		c1.2,1.4,3.9,5,4.3,5.6C363.4,363.4,362.9,363.3,361.6,363z"/>
	<path id="XMLID_237_" class="st1" d="M346.6,398.5c-1.8-0.7-3-2-3.7-3.8c-0.3-0.8-0.4-1.3-0.4-3.4c0-2.2,0-2.5,0.4-3.1
		c0.4-0.8,1.7-1.7,2.8-2c1.7-0.5,4.3,0.3,5.1,1.5c0.3,0.5,0.4,0.8,0.3,1.6c0,0.6-0.2,1.1-0.3,1.3c-0.1,0.1-0.7,0.3-1.3,0.4
		c-0.6,0.1-1,0.2-1.1,0.2c-0.1,0.1,0.3,1.4,0.6,1.6c0.5,0.4,2.7,0.3,3.6-0.1c1-0.5,2.2-1.9,2.9-3.3c1.6-3.3,1.5-6.2-0.3-12.5
		c-1.6-5.4-2-7.8-2-11.3c0-2.1,0.3-4,0.7-4.4c0.1-0.1,2.3,1.1,4.9,2.6l4.8,2.7l0.1,1.3c0.2,1.9,0.1,7.8-0.1,11.1
		c-0.4,6.6-1.2,10.8-2.9,14.3c-1.5,3.1-3.9,5.1-6.7,5.7c-0.5,0.1-2.2,0.2-3.7,0.2C347.8,398.9,347.5,398.9,346.6,398.5L346.6,398.5z
		"/>
	<polygon id="XMLID_238_" class="st1" points="134.6,312.2 134.6,311 249.6,311 364.6,311 364.6,312.2 364.6,313.4 249.6,313.4 
		134.6,313.4 134.6,312.2 	"/>
	<path id="XMLID_241_" class="st1" d="M243.1,158.9c-12.3-1.7-23.7-10.2-29.9-22.5c-3-6-4.4-11.8-4.4-18.8c0-10.9,3.9-20,12.3-28.3
		c16.9-16.8,41.1-16.9,57.8-0.2c10,10,14.6,25,11.4,37.5c-2.2,8.5-5.7,14.7-12,21.1C268.2,157.8,258.4,160.9,243.1,158.9z
		 M258.2,148.1c13.3-3.5,22.9-16,22.9-29.8c0-22.4-23.6-38.2-43.3-28.9c-15.5,7.3-22.7,24-17,39.3c3.5,9.2,12.6,17.8,21.1,19.9
		C245.9,149.4,253.8,149.2,258.2,148.1z"/>
	<path id="XMLID_244_" class="st1" d="M237.9,165.2c-8.4-2.3-14.9-6.2-21.6-13c-7.4-7.4-11.9-15.4-13.8-24.7
		c-3.8-18,5-39.1,20.9-49.7c9-6,13.5-7.2,27.6-7.2c13.5,0,16.6,0.7,24,5.5c9.2,6,17,16.3,20.8,27.3c2.7,7.9,3.3,19.3,1.4,26.4
		c-4,15.5-16.6,29.1-31.9,34.4C259.2,166.3,244,166.9,237.9,165.2z M263,159.3c18.1-5.8,30.3-22.6,30.3-41.7c0-18-12.9-35-30.8-40.7
		c-6.8-2.1-17.9-2.1-24.6,0c-13.3,4.3-24.9,15.3-29.1,27.7c-1.4,4.1-1.6,6.1-1.3,15.2c0.2,10.3,0.3,10.5,3.1,16.4
		c5,10.4,16.1,19.8,28.1,23.6C245.1,161.8,255.8,161.6,263,159.3L263,159.3z"/>
	<path id="XMLID_245_" class="st1" d="M140.3,308.7c0-1.3,4.9-7.1,7.4-8.8l2.5-1.7l99.9,0c98.5,0,99.9,0,102.3,1.5
		c2.2,1.3,6.9,7.5,6.9,9.1c0,0.3-49.3,0.6-109.5,0.6C183.5,309.3,140.3,309.1,140.3,308.7L140.3,308.7z"/>
</g>
</svg>
